<?xml version="1.0" encoding="utf-8"?>
<!-- Generator: Adobe Illustrator 16.0.1, SVG Export Plug-In . SVG Version: 6.00 Build 0)  -->
<!DOCTYPE svg PUBLIC "-//W3C//DTD SVG 1.1//EN" "http://www.w3.org/Graphics/SVG/1.1/DTD/svg11.dtd">
<svg version="1.1" id="Layer_1" xmlns="http://www.w3.org/2000/svg" xmlns:xlink="http://www.w3.org/1999/xlink" x="0px" y="0px"
	 width="139.68px" height="139.68px" viewBox="0 0 139.68 139.68" enable-background="new 0 0 139.68 139.68" xml:space="preserve">
<image display="none" overflow="visible" width="400" height="400" xlink:href="../../../../../../../Documents/Graphic Design Semseter 2/Computer Graphics 2/Week 13/Images/facebook-icon-logo-vector.png"  transform="matrix(0.2708 0 0 0.2708 15.7773 15.6421)">
</image>
<g>
	<rect x="21.173" y="21.673" fill="#4D74A1" width="97.333" height="96.167"/>
	<g>
		<g>
			<g>
				<g>
					<path fill="#4D74A1" d="M118.731,117.84c0.354,0.576,0.115-0.194,0.074-0.9L118.731,117.84z"/>
					<path fill="#4D74A1" d="M118.806,116.939l0.054-0.638C118.801,116.471,118.793,116.697,118.806,116.939z"/>
					<path fill="#4D74A1" d="M119.051,111.002c0.278,1.366-0.106,2.993,0.323,3.846C119.63,113.472,119.522,111.343,119.051,111.002
						z"/>
					<polygon fill="#4D74A1" points="118.772,113.053 119.007,113.225 118.643,112.027 					"/>
					<polygon fill="#4D74A1" points="118.559,113.908 118.645,113.736 118.405,111.865 					"/>
					<path fill="#4D74A1" d="M119.22,106.385l0.064,1.368c-0.319,1.282-0.43-0.847-0.645,0.01c0.003,1.709,0.666,0.589,0.561,2.725
						c0.301-0.171-0.002-3.419,0.47-3.075C119.819,105.617,119.392,107.324,119.22,106.385z"/>
					<path fill="#4D74A1" d="M116.667,24.539c0.021-0.038,0.029-0.067,0.044-0.102C116.661,24.49,116.625,24.535,116.667,24.539z"/>
					<path fill="#4D74A1" d="M98.253,23.846c-0.31-0.048-0.62-0.078-0.923-0.097c0.093,0.049,0.21,0.093,0.365,0.129L98.253,23.846z
						"/>
					<path fill="#4D74A1" d="M117.556,38.118c-0.053,0.324-0.089,0.621-0.117,0.892C117.505,38.84,117.554,38.575,117.556,38.118z"
						/>
					<path fill="#4D74A1" d="M20.418,51.639c-0.033-0.055-0.077-0.101-0.138-0.117c-0.002,0.008-0.006,0.023-0.011,0.039
						l0.128,0.249L20.418,51.639z"/>
					<path fill="#4D74A1" d="M72.982,24.579c-0.356,0.006-0.706,0.017-1.018,0.049C72.557,24.636,72.843,24.616,72.982,24.579z"/>
					<path fill="#4D74A1" d="M117.594,46.26c0.001-0.125,0.002-0.232,0.003-0.34c-0.018,0.108-0.035,0.254-0.048,0.419l0.045-0.063
						C117.594,46.27,117.594,46.27,117.594,46.26z"/>
					<path fill="#4D74A1" d="M105.622,24.483c-0.306-0.033-0.583-0.059-0.817-0.057C105.084,24.465,105.356,24.479,105.622,24.483z"
						/>
					<path fill="#4D74A1" d="M119.747,85.457c0.043-0.387,0.014-0.708-0.042-0.995C119.634,84.709,119.621,85.022,119.747,85.457z"
						/>
					<path fill="#4D74A1" d="M119.698,77.384l0.002,0.048C119.757,77.384,119.745,77.36,119.698,77.384z"/>
					<path fill="#4D74A1" d="M119.741,72.224c0.004,0.032,0.008,0.061,0.012,0.092C119.794,72.256,119.802,72.224,119.741,72.224z"
						/>
					<path fill="#4D74A1" d="M119.705,84.462c0.187-0.668,0.787-0.868,0.129-1.73l-0.089,0.172c0.15-0.518-0.107-1.283-0.129-1.883
						c-0.062,0.062-0.113,0.132-0.16,0.218c-0.008,0.302-0.025,0.7-0.068,1.314C119.25,83.282,119.563,83.756,119.705,84.462z"/>
					<path fill="#4D74A1" d="M116.788,24.544C116.667,24.611,116.729,24.85,116.788,24.544L116.788,24.544z"/>
					<path fill="#4D74A1" d="M117.281,31.029c0.007-0.226,0.014-0.452,0.021-0.685C117.278,30.564,117.255,30.781,117.281,31.029z"
						/>
					<path fill="#4D74A1" d="M117.111,57.248c0.009-0.045,0.018-0.082,0.026-0.125C117.069,57.086,117.08,57.187,117.111,57.248z"/>
					<path fill="#4D74A1" d="M117.308,29.714l-0.006,0.63C117.325,30.15,117.343,29.949,117.308,29.714z"/>
					<path fill="#4D74A1" d="M117.468,49.376c0.006-0.038,0.013-0.076,0.018-0.108C117.476,49.291,117.47,49.331,117.468,49.376z"/>
					<path fill="#4D74A1" d="M62.756,120.698c-0.528,0.057-0.839-0.116-1.336-0.168c-1.119,0.436,2.306,0.01,0.684,0.397
						c0.496-0.003,0.886-0.061,1.251-0.122l-0.708-0.409C61.668,120.556,63.3,120.534,62.756,120.698z"/>
					<path fill="#4D74A1" d="M19.563,58.189l0.037-0.225c-0.188,0.155-0.246,0.015-0.346,0.878c0.286,0.738,0.714-0.412,1.03,0.878
						c-0.032-0.249-0.018-0.622,0.021-0.971C20.049,59.277,19.784,58.757,19.563,58.189z"/>
					<path fill="#4D74A1" d="M20.305,58.749c0.006-0.016,0.013-0.023,0.021-0.037c0.039-0.056,0.072-0.118,0.102-0.188
						c0.002-0.187,0.017-0.365,0.045-0.513C20.401,58.15,20.34,58.43,20.305,58.749z"/>
					<path fill="#4D74A1" d="M45.256,120.518c-0.217-0.015-0.412-0.027-0.59-0.039C44.953,120.558,45.124,120.556,45.256,120.518z"
						/>
					<path fill="#4D74A1" d="M74.607,19.35c0.255-0.041,0.506-0.086,0.706-0.129C74.925,19.243,74.73,19.292,74.607,19.35z"/>
					<path fill="#4D74A1" d="M19.968,45.733c0.032-0.197,0.052-0.402,0.065-0.624c-0.006-0.13-0.012-0.239-0.019-0.395
						L19.968,45.733z"/>
					<path fill="#4D74A1" d="M23.922,87.245c-0.467-0.442,0.037,0.342-0.232,1.229l0.248,0.823
						C24.012,88.543,23.936,87.844,23.922,87.245z"/>
					<path fill="#4D74A1" d="M63.409,120.837c0-0.015,0-0.027,0.008-0.042c-0.023,0.004-0.035,0.006-0.062,0.011L63.409,120.837z"/>
					<path fill="#4D74A1" d="M24.024,111.639c-0.023,0.141-0.043,0.265-0.064,0.396C23.987,111.957,24.01,111.833,24.024,111.639z"
						/>
					<path fill="#4D74A1" d="M20.506,53.861l0.027-3.139l-0.115,0.917C20.649,52.074,20.225,53.426,20.506,53.861z"/>
					<path fill="#4D74A1" d="M24.196,73.855l0.283-0.279c-0.604-3.124,0.262-6.707-0.586-9.193c0.996-3.804-0.892-2.494,0-5.983
						l-0.142,0.116c0.114-5.734,0.231-11.645,0.347-17.461c0.046-2.909,0.071-5.793,0.055-8.622
						c-0.02-1.414-0.039-2.813-0.058-4.195c-0.019-0.691-0.038-1.377-0.057-2.058l-0.037-1.018c-0.006-0.23-0.013-0.201-0.02-0.232
						l-0.022-0.082l0.199,0.052l0.044-0.198l0.259,0.042l2.85,0.028c2.041,0.008,4.078,0.016,6.11,0.024
						c4.066-0.012,8.118-0.023,12.166-0.035c8.096-0.042,16.178-0.098,24.326-0.023c1.599-0.184,0.635-0.623,2.012-0.846
						c0.599,0.018,1.951-0.006,1.958,0.238c-1.159,0.135-0.507,0.352-0.902,0.447c1.927-0.025,4.415,0.258,6.132-0.042l-1.438-0.316
						c0.668-0.133,1.718-0.043,2.323-0.027c-0.255,0.162,0.624,0.507,0.102,0.584c3.627-0.786,2.829,0.338,5.882,0.027
						c0.608-0.672,4.431-1.223,6.948-1.701l1.321,0.174c-1.757-0.004,0.032,0.49-2.146,0.458c1.818,0.194,3.505-0.095,5.224,0.013
						c-0.334-0.168-0.248-0.389,0.442-0.465c1.057,0.092,1.149,0.429,2.355,0.463l-1.19,0.211c0.802,0.252,1.493-0.08,2.237-0.121
						c0.242,0.281,2.044,0.332,1.726,0.645c1.624-0.383,2.199-0.167,3.947-0.41c-1.818-0.296,0.468-0.37,0.264-0.603l-2.05,0.111
						c2.89,0.188-0.939,0.05-0.723,0.529c-1.358-0.221,1.865-0.79-0.411-0.715c2.72-0.244,3.295-0.029,6.075-0.426
						c-1.679,0.09,0.321-0.312-0.581-0.458c2.13-0.018,0.529,0.167,1.188,0.476c1.159-0.014,1.585,0.258,2.651-0.095
						c1.88,0.145-0.281,0.359,0.669,0.555c-0.695,0.33-5.23-0.407-4.717,0.646c-0.98,0.011-2.178,0.414-3.591,0.393
						c1.233,0.138,2.998,0.484,4.522,0.244l0.077-0.594c1.158-0.015,1.396-0.418,2.231-0.365c-0.443,0.172,0.356,0.422,1.289,0.373
						c-0.266-0.084-0.638-0.064-0.535-0.168c0.862-0.022,1.354-0.134,1.886-0.255c0.173-0.03,0.146-0.061,0.232-0.091
						c0.062-0.03,0.131-0.059,0.211-0.086c0.16-0.054,0.362-0.101,0.624-0.128c-0.356-0.077-0.6-0.16-0.867-0.256
						c-0.047-0.024-0.16-0.048-0.3-0.074c-0.127-0.025-0.259-0.052-0.4-0.08c-0.283-0.051-0.603-0.108-0.997-0.179
						c0.213-0.208,0.492-0.223,0.835-0.193c0.325,0.031,0.813,0.107,1.074,0.082c-0.104,0.057-0.228,0.068-0.059,0.15l0.72-0.2
						c0.7,0.09,0.511,0.24,0.347,0.394c-0.178,0.153-0.321,0.309-0.005,0.41c0.033,0.047,0.068,0.079,0.109,0.097
						c-0.117,0.447,0.265,0.402,0.094,0.875c0.039-0.042,0.079-0.087,0.106-0.126c-0.007,0.104-0.017,0.178-0.029,0.233
						c0.01-0.006,0.018-0.012,0.029-0.016c0.012,0.137,0.023,0.276,0.034,0.411c0.015,0.261,0.028,0.513,0.041,0.741
						c0.038,0.481,0.107,0.861,0.263,1.02c-0.141,0.118,0.041,0.981,0.138,1.346c0.124,0.625,0.491,2.121-0.009,3.053l-0.003-0.07
						c-0.06,1.397-0.216,2.485-0.384,2.184l-0.125,2.253l-0.404-0.242c0.11,2.052,0.346,1.848,0.764,3.256
						c-0.24,1.471-0.047,4.042,0.104,5.013c-0.016,0.162-0.018,0.41,0.004,0.818l0.159-0.856c-0.018,1.602,0.196,1.407,0.198,2.464
						c0.037-0.22,0.061-0.251-0.003,0.34c-0.009,0.179-0.019,0.373-0.03,0.607c-0.043-0.053-0.036-0.29-0.015-0.527l-0.136,0.193
						c-0.43,1.281,0.244,1.965,0.094,3.334c-0.015-0.131-0.043-0.351-0.039-0.491c-0.108,0.77-0.682,1.875-0.332,2.193
						c-0.045,0.178,0.025,0.449,0.112,0.713l-0.061,0.566c0.019-0.232,0.04-0.411,0.062-0.559c0.115,0.352,0.26,0.686,0.173,0.73
						l-0.072,1.967c-0.058,0.373-0.008,0.879,0.049,1.289l-0.168,0.334c0.025,0.717-0.074,0.723-0.12,0.637
						c-0.583,2.489,0.298,3.848-0.207,6.538c0.28,0.513,0.407-0.599,0.558-0.684c0.216,0.419,0.408,1.958,0.561,2.728
						c-0.387,1.197-0.729,4.871-1.287,4.281c-0.043,2.216,0.345-0.69,0.537,0.419l-0.022,0.254c0.065-0.766,0.257-1.364,0.472-1.794
						c0.301-0.168,0.39,1.789,0.303,2.388l-0.43-0.42c0.15,2.044,0.795,1.617,1.225,2.89c-0.17,1.627-0.559,0.691-0.942,1.035
						l0.106,1.709h-0.322c0.086,1.11,0.387,1.369,0.26,2.906c-0.304-1.11-0.3,2.308-0.708,0.771
						c-0.108,0.854,0.515,1.101,0.085,1.537c0.345,0.593,0.172-0.767,0.28-1.198c0.493-0.349,0.236,1.876,0.365,2.901
						c-0.256,0.086-0.301-0.685-0.472,0.522c0.193,0.247,0.344,1.015,0.107,1.699c0.322,0,0.065,1.369,0.046,2.053
						c0.062-0.771,0.298-1.882,0.576-1.378c0.13,0.598,0.194,1.114,0.151,2.479l0.15-0.939c0.473,1.192-0.342,1.969-0.191,3.592
						c-0.194-0.685-0.194-1.112-0.43-1.709c0.151,0.768,0.387,2.222,0.537,3.417l-0.471,1.369c0.236,0.17-0.021,1.538,0.302,1.538
						c-0.217,1.703-0.388-1.368-0.624-1.538c-0.213,2.137,0.537,1.711,0.044,3.76l-0.3-0.681c-0.021,0.681,0.15,2.05,0,2.135
						c0.108,0,0.064-0.343,0.064-0.769c0.646,0.419,0.451,3.153,1.117,2.899l0.043-0.942c0.129,1.444,0.58,2.473,0.346,3.583
						c-0.214,0.854-0.451-0.598-0.623-1.104c-0.043,1.36,0.73,1.104,0.666,2.729c0.107-0.854,0.345-0.69,0.516-0.179
						c0.043-0.938,0.17-2.9-0.109-2.556l-0.064,0.341c-0.172-0.086-0.236-0.599-0.322-0.854c0-1.284,0.301-0.599,0.43-0.855
						c0.105-2.136-0.665-0.174-0.645-2.129l0.129-0.256c-0.172-0.941-0.195-2.394-0.604-2.651c0.43-0.855-0.171-2.216,0.085-3.153
						c0.944-0.179-0.064,3.324,0.452,4.436c0.194-1.024,0.451,0.588,0.667,1.018l-0.409-3.238c0.129-0.259,0.601-1.207,0.256-1.796
						l-0.021,0.255c-0.107-1.284-0.494-0.938-0.365-2.05c0.086-0.172,0.236,0.169,0.301,0.255c0.086-1.025-0.215-0.854-0.301-1.538
						c0.085-1.024,0.387,0.513,0.492-0.343c-0.365-1.188,0.086-1.879,0.063-2.908c-0.536,0.438-0.731-4.092-1.202-1.87l-0.366-2.47
						c0.278-0.771,0.751,1.699,1.202,1.016l-0.02,1.967c0.667-0.325-0.437-4.119,0.309-5.424c0.029-1.05-0.064-0.793,0.268-2.782
						l-0.597,0.341c0.138-1.031,0.462-1.365,0.571-1.413c-0.039-0.605-0.023-1.149,0.002-1.711c0.088,0.148,0.168,0.357,0.199,0.724
						c0.331-0.776,0.207-1.002,0.031-1.273c-0.15-0.419-0.13-1.057-0.125-1.702l0.222,0.581c-0.05-0.394-0.114-0.878-0.222-0.922
						c-0.002-0.268-0.016-0.522-0.053-0.765c-0.104,0.173-0.451,0.599-0.605,1.523c0.234-2.392,0.105-4.266,0.598-6.316
						c0.172,0.077,0.387,0.933,0.408,0.675c0.086-1.024-0.215-2.137-0.473-2.043c-0.017-0.232-0.023-0.41-0.025-0.566
						c0.148-0.195,0.307-0.436,0.333-0.923c0.054-0.112,0.101-0.296,0.12-0.647c-0.473-0.343-0.236-2.307-0.451-2.733
						c-0.049,0.463-0.045,1.031-0.028,1.606c-0.315-0.825-0.677-1.562-0.423-2.199c0.301,1.531,0.492-1.633,0.623,0.674
						c0.6-1.622-0.43-0.846-0.217-2.562l0.236-1.11c0.344,0.169,0.172,1.796,0.301,1.538l-0.043-0.77
						c0.258,0.77,0.089,3.677,0.475,5.465l0.191-3.59c-0.409-4.523,0.062-10.167-0.692-14.005l0.009,0.163
						c-0.033-0.067-0.097-0.099-0.228-0.153l0.086-0.173l-0.26-0.76c0.322-0.863,0.386-2.48,0.642-3.855
						c-0.213,0.864-0.213,0.864-0.47,0.949c-0.345-0.172-0.491-0.305-0.363-1.588c0.243-0.013,0.237,0.778,0.432-0.168
						c-0.12,0.489-0.292,0.054-0.323-0.506c0.158-0.723,0.192-1.926,0.438-1.942c0.066,0.334-0.018,0.604-0.054,0.831
						c0.065,0.334,0.221-1.359,0.421-0.366l-0.07-1.305c0.204-0.761,0.322,0.506,0.454,0.203c-0.167-2.17-0.729-3.281-0.896-5.246
						c0.13,0.092,0.676,0.114,0.518,0.092c0.164-1.51-0.594-3.24-0.638-4.96c0.161,0.253,0.097,0.896,0.175,1.417
						c0.045-1.3,0.087-2.541,0.128-3.748c0.041-1.785,0.081-3.518,0.12-5.236c-0.888-0.026-1.771-0.053-2.656-0.079
						c-0.864-0.034-1.729-0.068-2.601-0.103c-1.193-0.078-2.401-0.177-3.649-0.308l-1.283,0.561l-1.289-0.373
						c-5.191-0.358-9.177,0.004-14.113,0.172c-1.537,0.036-0.923-0.391-1.646-0.549c-3.373-0.063-4.197,0.569-7.412,0.695
						c0.442-0.172,1.196-0.654-0.188-0.678c-0.259,0.162-0.427,0.416-1.301,0.316l0.444-0.172c-0.799-0.252-1.57-0.014-3.225-0.121
						c-2.922,0.011-5.711,0.408-8.114,1.027c-2.583-0.057,0.269-0.604-0.222-0.725c1.822,0.205,1.267-0.1,1.662-0.293
						c-0.965,0.159-2.131,0.256-2.627-0.145c-1.343,0.024-1.951,0.006-3.278,0.275c0.668-0.135,1.241,0.081,0.615,0.262
						c-1.099-0.139-3.896,0.014-3.741-0.486c-6.363,0.098-13.483-0.008-20.298,0.015c-1.149,0.258,0.872,0.1,0.241,0.282
						c-1.671,0.336-1.32-0.174-2.658,0.093l0.552-0.273c-1.989-0.041-4.103,0.464-6.03,0.717c0.319-0.311-1.583-0.258,0.018-0.442
						c-0.942,0.052-2.087-1.339-2.814-1.054l1.062,1.295c-0.053,0.127-1.374,0.049-1.242,0.135
						c-0.824-0.256-1.834-0.556-2.403-0.556c-0.278-0.327,1.154-0.257,1.937-0.25c0.117-0.546-2.643-0.35-1.506-0.851
						c-1.681,0.09,0.239,0.28-0.766,0.482l-1.466-0.117l1.132,0.184c-1.224,0.164-1.644,0.58-3.276,0.274l-1.694,0.534
						c-0.086-0.216-0.395-0.236-0.792-0.214c-0.198,0.014-0.418,0.029-0.644,0.044c-0.24,0.012-0.393,0.015-0.816-0.01
						c-0.016,0,0.253-0.069,0.416-0.138c0.137-0.069,0.273-0.138,0.273-0.138c-0.41-0.002-0.757-0.004-1.063-0.006
						c-0.378-0.014-0.706-0.027-1.011-0.039c-0.616-0.037-1.154-0.094-1.852-0.173c0.475-0.189,0.99-0.167,1.391-0.142
						c0.407,0.025,0.713,0.053,0.937-0.126l-2.46-0.127c0.124,0.244-1.159,0.436,0.532,0.584c-0.771,0.196-1.298,0.377-2.019,0.518
						c0.187,1.301,0.3,2.752,0.279,5.241c-0.104,0.334-0.18,0.412-0.241,0.348c-0.031-0.032-0.057-0.099-0.082-0.187
						c-0.025-0.087-0.048-0.176-0.071-0.389c-0.092-0.734-0.184-1.702-0.39-1.288c-0.006,0.333-0.012,0.648-0.017,0.95
						c0,0.306,0.004,0.621,0.013,0.729c0.018,0.316,0.052,0.603,0.099,0.865c0.093,0.524,0.232,0.954,0.376,1.344
						c0.288,0.78,0.591,1.4,0.565,2.299c-0.171,2.291,0.215,2.159,0.242,4.483c-0.285-0.738-0.305,1.624-0.576,2.05l-0.295-0.917
						c0.088,0.707-0.023,1.384-0.231,1.175c0.385-0.131,0.36,3.013,0.543,4.614l0.328-0.28c0.109,1.252,0.316,2.986,0.232,4.313
						c0.106,1.975,0.396,1.524,0.754,3.047c-0.297,0.839-0.646,0.746-1.006,0.466c0.168-0.529,0.07-1.422,0.171-2.292
						c-0.283-2.495-0.975-4.436-0.816-6.924c-0.795-1.08,0.092,1.68-0.188,2.889c-0.048-0.036-0.063-0.124-0.071-0.216
						c-0.001,0.108-0.005,0.203-0.023,0.303c-0.098-0.893-0.225-2.347-0.631-2.589c0.082,1.493,0.795,1.082,0.453,2.938
						c0.222,1.375-0.404,2.496-0.459,3.327c0.297,0.917,0.936,0.956,0.813,3.209l-0.446-0.987c-0.009,2.549,0.653,1.197,0.633,3.557
						c0.053-0.83,0.438,0.803,0.45-0.775c0.238,0.775,0.283,2.495,0.154,3.777c0.068,0.334,0.151,0.07,0.303,0.132
						c0.311-1.422-0.301-2.246,0.145-3.412l-0.48-0.987c0.174-1.319,0.561-1.453,0.75-0.645c-0.02-0.373-0.086-0.699-0.002-0.971
						c0.723-0.226-0.257,1.585,0.356,2.044l-0.051-0.933c0.469-0.404,0.412,2.178,0.379,3.38c-0.221,1.36-0.301,2.603-0.641,2.696
						l-0.146-1.826c-0.272,0.948,0.16,2.332,0.146,3.396c-0.047,0.07-0.082,0.171-0.106,0.295c0.03-0.054,0.061-0.085,0.094-0.085
						c-0.017,0.225-0.058,0.427-0.14,0.598c-0.018,0.933,0.19,2.3,0.082,3.171l0.304-0.109l-0.171-0.117
						c0.012-0.854,0.199-2.013,0.425-1.368c0.211,1.927-0.375,2.316-0.639,2.774c-0.466-0.443,0.004-1.881-0.155-2.86
						c-0.46,0.591-0.048,1.958-0.353,3.948c-0.506-0.792,0.007-2.308-0.459-2.743c-0.086,1.601,0.272,2.021,0.145,3.707
						c-0.234-0.215-0.256-1.857-0.557-1.75l-0.144,1.082c-0.029-2.658-0.629,0.466-0.752-1.609
						c-0.207,0.979,0.412,1.368,0.092,2.759c0.22-0.389,0.621-1.5,0.818-0.169l-0.148,1.506c-0.244,0.629-0.538-1.57-0.744-0.591
						l0.172,1.578c0.15-0.055,0.226-0.808,0.433-0.334c-0.162,0.91,0.582,1.492,0.805,2.564c-0.012,0.855-0.043,1.531-0.219,1.834
						c0.445,2.152,0.43,4.88,0.854,6.861c-0.303-1.352-0.516,0.055-0.743,0.863c-0.063-1.557-0.536-1.568-0.839-1.462
						c0.051,0.948,0.538,1.57,0.696,1.093c-0.193,1.581,0.328,1.092,0.01,2.482c-0.164,0.901-0.467-0.451-0.645-0.14
						c-0.021,1.709,0.574,0.466,0.463,2.323c-0.063-0.101-0.082-0.271-0.17-0.124c-0.1,1.002,0.123,2.082,0.357,2.298
						c-0.616,1.066,0.066,3.01-0.532,2.8c0.16,2.425,0.327-0.361,0.536,0.116c0.266,0.993,0.048,2.829-0.047,3.404
						c-0.013-0.599-0.177-1.15-0.084-1.726l-0.416,0.511c-0.296,3.018,0.942,1.914,0.581,4.828c-0.217-1.5-0.315-0.497-0.609-1.243
						c0.104,0.45-0.013,2.735,0.306,1.352c-0.035,1.096-0.11,1.857-0.186,2.611c0.16,0.972,0.275,2.028,0.547,2.594
						c-0.043,1.532-0.338,2.667-0.52,3.399c0.301,3.224-0.213,6.199,0.107,9.596l0.025-0.249c-0.019,0.559,0.006,1.2,0.054,1.236
						c0.048,0.086,0.119-0.155,0.192-0.377c0.146-0.444,0.3-0.81,0.292,1.199c-0.47-0.388-0.366,2.197-0.557,3.934
						c0.136,0.017,0.247,0.035,0.344,0.057c1.338,0.065,2.671,0.075,3.934,0.058c0.315-0.006,0.627-0.012,0.937-0.018
						c0.215-0.009,0.428-0.017,0.639-0.024c0.361-0.021,0.718-0.041,1.073-0.061c1.418-0.083,2.803-0.156,4.35,0.015
						c-0.023,0.107-0.226,0.234-0.824,0.247c2.362,0.161,4.266,0.059,6.396,0.086l-0.093,0.062
						c3.413,0.413,6.512-0.084,10.048-0.206c-0.288,0.063-0.361,0.256-0.583,0.324c1.78,0.114,4.624,0.188,5.875-0.275
						c2.114,0.501,1.399-0.153,4.119,0.333c0.155,0.09-0.27,0.084-0.451,0.104c1.336,0.168,2.285,0.116,3.637,0.176
						c2.984-0.324,3.723-0.98,7.188-0.783c0.179,0.693-2.129,0.172-2.207,0.724c0.691-0.123,1.29-0.265,2.246-0.1
						c-0.575,0.271-0.124,0.17-0.521,0.423c0.73,0.183,2.945-0.722,2.93-0.657c0.039-0.134-0.21-0.206-0.896-0.187
						c0.81-0.426,3.406-0.035,5.084-0.207c-0.544-0.012-2.262-0.147-1.617-0.475c2.253,0.146,3-0.52,4.577-0.795
						c2.075,0.313-1.53,0.582-1.142,1.067c0.35,0.178,1.181,0.565,0.311,0.755c1.865,0.104,3.209-0.312,4.872-0.418l-0.046,0.137
						c2.323-0.057,4.802-0.656,6.753-0.38l-1.034-0.157c0.381-0.082,1.555-0.042,2.199-0.322c-0.069,0.229,1.445,0.434,0.824,0.622
						c1.033-0.731,5.284-0.444,6.442-1.136c0.621,0.183,0.124,0.479-0.062,0.646c-1.469-0.063-1.966-0.208-2.735,0.084
						c1.22-0.011,2.113,0.177,1.927,0.344c1.221-0.455,4.127-0.634,4.741-1.089c0.894,0.229,1.742,0.352,1.43,0.73
						c3.743-0.235-1.85-1.169,2.378-1.163c1.927,0.367-1.881,0.497,0.777,0.622l-0.49,0.06c1.92,0.977,1.345-0.696,3.521-0.664
						c0.289,0.532-1.516,0.38-0.016,0.761c1.989-0.134,2.859-0.922,4.85-0.751l-0.312,0.226c1.274-0.042,3.746,0.066,5.013,0.024
						c0.062,0.104-0.124,0.09-0.365,0.118c2.347,0.201,0.979-0.271,2.898,0.096l0.552-0.258c-0.964-0.184-2.829-0.443-4.049-0.14
						c1.22-0.304-1.911-0.673-1.306-1.126l-0.24,0.183c-3.187-0.78-7.29-0.878-11.331-1.171c-2.549,0.543-4.336-0.219-7.071,0.156
						c-0.428,0.621-0.513,0.125-2.859,0.25c1.243-0.077,0.147-0.473-0.638-0.557c-0.458,0.16-1.018,0.219-1.577,0.275
						c-0.475-0.213-3.435-0.713-4.516-0.291c-1.43-0.199,0.335-0.199,0.646-0.328c-0.583-0.318-1.164,0.25-1.64,0.036
						c0,0,0.023-0.067,0.173-0.099c-2.186,0.025-3.491-0.137-5.769-0.215c-0.187,0.609-2.237,0.229-3.248,0.447
						c0.326-0.196-1.282-0.228-1.927-0.343l-1.221,0.452c-1.204,0.386-1.678-0.271-3.236-0.062l0.377,0.109
						c-1.142,0.183-4.142-0.184-5.261-0.512c-10.53,1.191-16.289-0.669-27.385-0.346c-0.723,0.184,0.528,0.309-0.039,0.58
						c-1.127,0.07-1.383,0.045-2.409,0.054c0.908,0.163,0.762-0.04,0.645,0.13l1.574-0.172c0.074,0.045-0.097,0.063,0.051,0.15
						c0.528-0.057,1.15-0.179,1.828-0.146c-0.974,0.158-1.246,0.608-2.574,0.437c0.101-0.062,0.272-0.081,0.622-0.119
						c-1.096-0.036-1.15,0.18-1.976,0.061c-1.008-0.101-0.76,0.038-0.892-0.157l-3.131-0.243c-1.562,0.539-3.489,0.026-3.995-0.023
						c0.342-0.403,2.075-0.124,2.844-0.521l-1.129-0.295l-0.068,0.323l-1.608-0.089l0.091-0.062c-0.19,0.125-0.387,0.25-0.799,0.14
						c-0.07-0.045-0.225-0.133-0.046-0.151c0.035,0-1.246,0.178-1.002,0.178c0.196-0.334-0.271-0.1-0.103-0.484
						c-0.124-0.046-0.217-0.041-0.345-0.015c-0.044-0.112-0.146-0.21-0.187-0.394l-0.012-0.068
						c-0.003-0.037-0.005-0.005-0.005-0.159c0-0.229,0.004-0.467,0.017-0.716c0.025-0.498,0.08-1.045,0.181-1.674
						c-0.182,0.536-0.608-1.043-0.537-2.056c0.094-0.587,0.182-0.734,0.328-0.361l-0.197-1.329c0.602-1.663,0.214-3.287,0.42-5.727
						l0.17,0.128c-0.201-0.905-0.361-1.877-0.298-3.236l0.339,0.248c0.239-1.659-0.713-1.267-0.496-3.101
						c-0.365,0.01-0.552,1.166-0.898,1.345c0.371-0.434,0.426-2.401,0.162-1.943c-0.149-1.826,0.01-1.267,0.098-1.422l-0.223-1.072
						c0.018-1.284,0.479-0.412,0.688,0.062c-0.393-1.197-0.116-2.503-0.055-3.86l0.164,0.55l0.066-1.787
						c-0.285-1.166-0.306-2.798-0.156-4.306l0.48,1.041c0.25-1.057-0.167-0.544-0.248-0.823c-0.234-1.671,0.092-2.028,0.363-2.91
						C23.627,78.798,24.917,76.148,24.196,73.855z M117.339,56.611l0.072-0.248C117.493,56.923,117.571,57.241,117.339,56.611z
						 M117.476,41.918c0.188,1.77-0.039,1.208-0.172,1.343c0.131-1.742-0.022-2.711,0.135-4.252
						c-0.096,0.248-0.225,0.295-0.305,0.375c0.023-0.614,0.129-1.229,0.373-1.438C117.989,38.707,117.196,42.685,117.476,41.918z
						 M119.851,74.997c-0.036-0.062-0.073-0.131-0.107-0.208c0,0,0,0,0-0.01L119.851,74.997z M119.423,66.24
						c0.104-0.125,0.161-0.341,0.199-0.605C119.493,65.797,119.388,65.954,119.423,66.24z M120.018,48.809
						c0.2-0.403,0.14-1.321,0.094-1.989C120.089,47.132,120.027,47.692,120.018,48.809z M35.675,20.379
						c0.528-0.078,1.521-0.279,0.614-0.426c-0.435,0.172-1.276-0.126-1.644,0.137c-0.053-0.01-0.06-0.016-0.09-0.023
						C35.083,20.231,35.519,20.369,35.675,20.379z M21.514,58.866c-0.198-0.093-0.413-0.482-0.562-0.233
						c0.005-0.043,0.011-0.101,0.016-0.147c-0.067,0.132-0.123,0.241-0.167,0.14c-0.039,0.42-0.087,0.863-0.03,1.158
						C21.417,59.926,21.52,60.816,21.514,58.866z"/>
					<path fill="#4D74A1" d="M18.864,41.599c0.006,0.2,0.011,0.356,0.015,0.481C18.875,41.949,18.87,41.799,18.864,41.599z"/>
					<path fill="#4D74A1" d="M20.774,59.697c0.041,0.039,0.105-0.458,0.178-1.065C20.872,58.757,20.807,59.052,20.774,59.697z"/>
					<path fill="#4D74A1" d="M117.673,103.493l-0.064-0.512l-0.193,1.025c0.215,1.709,0.494,1.795,0.816,2.215
						c-0.301-1.531-0.15-2.47-0.238-4.437L117.673,103.493z"/>
					<path fill="#4D74A1" d="M119.819,102.625c0.086-0.172,0.302-0.601,0.323-0.856l-0.195-0.255L119.819,102.625z"/>
					<path fill="#4D74A1" d="M120.761,82.375l-0.172,1.623C120.761,84.511,121.062,82.628,120.761,82.375z"/>
					<path fill="#4D74A1" d="M117.365,89.577l0.216,0.854c0.172-0.767,0.15-1.795-0.085-1.964
						C117.625,89.492,117.365,88.722,117.365,89.577z"/>
					<path fill="#4D74A1" d="M120.802,78.015c-0.387-0.507,0.172-1.625-0.193-1.959C120.716,76.482,120.415,77.935,120.802,78.015z"
						/>
					<path fill="#4D74A1" d="M117.126,79.154c-0.365,0.516-0.042,1.368-0.129,2.396C116.997,80.694,117.384,79.497,117.126,79.154z"
						/>
					<path fill="#4D74A1" d="M119.705,69.312c0.276,0.083,0.257,0.768,0.192,1.537c-0.086-0.258-0.214-0.427-0.258-0.77
						c0.215,1.281,0.172,1.368,0.301,2.394c0.193-1.025,0.32-2.565,0.664-2.4C120.347,69.312,119.961,68.368,119.705,69.312z"/>
					<path fill="#4D74A1" d="M117.081,76.684c-0.107,0.855-0.363,1.368-0.342,2.394c0.193-0.178,0.474-0.519,0.428-1.717
						l0.322,0.428C117.727,76.677,117.062,78.224,117.081,76.684z"/>
					<path fill="#4D74A1" d="M120.452,64.607l-0.148,0.516c0.258,1.197,0.129,2.733,0.538,3.409
						C120.819,67.086,120.646,65.291,120.452,64.607z"/>
					<path fill="#4D74A1" d="M117.681,72.488l-0.45-0.162c-0.063,1.194,0.15-0.087,0.258,0.341
						c-0.065,0.341-0.106,0.854-0.021,1.104C117.401,72.411,117.832,73.684,117.681,72.488z"/>
					<path fill="#4D74A1" d="M117.185,68.563l-0.192-1.531l-0.493,1.197C116.67,70.023,116.779,68.315,117.185,68.563z"/>
					<path fill="#4D74A1" d="M117.485,66.681l0.086-0.171l-0.666-2.298C117.185,65.581,117.143,65.664,117.485,66.681z"/>
					<path fill="#4D74A1" d="M120.415,38.825c-0.193-0.258-0.434,1.088-0.219,0.512C120.356,39.595,120.606,37.799,120.415,38.825z"
						/>
					<path fill="#4D74A1" d="M116.804,44.318c0.146-0.654-0.129-2.798-0.262-3.737C116.636,41.699,116.542,44.475,116.804,44.318z"
						/>
					<path fill="#4D74A1" d="M116.489,40.198c0.011,0.076,0.03,0.218,0.053,0.383C116.528,40.409,116.513,40.286,116.489,40.198z"/>
					<path fill="#4D74A1" d="M97.546,24.684c-0.101,0.006-0.2,0.02-0.285,0.051C97.359,24.717,97.445,24.702,97.546,24.684z"/>
					<path fill="#4D74A1" d="M98.488,24.571c0.638,0.065,1.902-0.053,2.121-0.262c-1.003,0.099-1.89,0.159-3.063,0.375
						C97.987,24.661,98.527,24.807,98.488,24.571z"/>
					<path fill="#4D74A1" d="M89.421,24.471c0.471-0.123,1.117-0.06,0.954-0.248C90.109,24.139,89.106,24.34,89.421,24.471z"/>
					<path fill="#4D74A1" d="M28.338,18.834c-0.873-0.102-1.384-0.023-1.149,0.258C28.167,19.088,27.632,18.92,28.338,18.834z"/>
					<polygon fill="#4D74A1" points="26.069,19.152 25.952,19.012 25.378,18.797 					"/>
					<path fill="#4D74A1" d="M18.241,20.849c-0.045-0.113-0.094-0.443-0.123-0.778C18.157,20.756,18.196,21.325,18.241,20.849z"/>
					<path fill="#4D74A1" d="M18.1,19.725c0.005,0.107,0.012,0.236,0.018,0.346C18.112,19.961,18.105,19.832,18.1,19.725z"/>
					<path fill="#4D74A1" d="M18.19,19.046l-0.15-0.274c0.022,0.211,0.041,0.591,0.061,0.952
						C18.09,19.403,18.11,19.087,18.19,19.046z"/>
					<path fill="#4D74A1" d="M18.19,24.249c0,0,0.107-0.515,0.214-1.029c0.107-0.478,0.214-0.955,0.214-0.955
						c-0.105-1.113-0.161-0.556-0.246,0.042c-0.085,0.581-0.202,1.241-0.431,0.005L18.19,24.249z"/>
					<path fill="#4D74A1" d="M18.309,28.59c-0.139,1.095,0.536,2.673,0.029,3.294c0.266,3.101,0.846-0.716,1.038,2.832
						c0.262-3.353-0.977-1.705-0.695-4.681C18.366,31.474,18.431,29.07,18.309,28.59z"/>
					<path fill="#4D74A1" d="M19.162,28.062c-0.254-0.178-0.277,1.212-0.107,1.646C19.083,29.304,19.438,28.606,19.162,28.062z"/>
					<polygon fill="#4D74A1" points="18.537,34.651 18.342,35.599 18.504,35.848 					"/>
					<path fill="#4D74A1" d="M18.436,38.247l-0.295-0.923C18.256,37.628,18.233,39.012,18.436,38.247z"/>
					<path fill="#4D74A1" d="M18.068,43.254c-0.1,0.869,0.581,1.655,0.432-0.179l-0.026,0.418
						C18.369,43.386,18.129,44.373,18.068,43.254z"/>
					<path fill="#4D74A1" d="M19.137,54.84c0.015-0.599-0.072-1.306-0.213-1.181l0.139,1.64L19.137,54.84z"/>
					<path fill="#4D74A1" d="M20.792,54.599c0.414-0.552-0.033-1.539,0.104-2.626C20.815,53.208,20.758,53.061,20.792,54.599z"/>
					<path fill="#4D74A1" d="M18.549,56.713c-0.17-0.443-0.061-1.127-0.033-1.539C18.281,55.376,18.342,56.503,18.549,56.713z"/>
					<path fill="#4D74A1" d="M18.691,59.324c-0.167,0.536-0.231-0.117-0.345,0.288c-0.187,1.15-0.162,2.354,0.066,3.007
						c0.176-0.303,0.655-0.715,0.863-0.241c-0.146-1.834-0.913-2.772-0.323-3.666l-0.721-1.533
						C18.114,58.648,18.735,58.306,18.691,59.324z"/>
					<path fill="#4D74A1" d="M20.062,55.617L19.82,56.6c0.234-0.198,0.275,0.548,0.352,1.069
						C20.7,57.413,20.093,56.177,20.062,55.617z"/>
					<polygon fill="#4D74A1" points="19.009,69.497 19.131,71.579 19.161,70.903 					"/>
					<polygon fill="#4D74A1" points="18.84,70.833 18.688,70.888 18.968,72.48 					"/>
					<polygon fill="#4D74A1" points="18.661,73.017 18.684,72.768 18.552,71.542 					"/>
					<path fill="#4D74A1" d="M18.558,77.36l0.222-0.383c-0.059-0.526,0.191-1.583-0.11-1.481
						C18.771,75.954,18.735,77.05,18.558,77.36z"/>
					<path fill="#4D74A1" d="M24.206,91.757c-0.147-0.377-0.277-0.151-0.41,0.073l0.379,0.599
						C24.155,92.25,24.118,91.9,24.206,91.757z"/>
					<path fill="#4D74A1" d="M23.59,94.271l0.432,1.546c0.066-1.779-0.273-2.027-0.34-3.582c-0.137,0.658,0.172,1.577,0.054,2.409
						L23.59,94.271z"/>
					<path fill="#4D74A1" d="M28.579,115.753c-0.14,0.277,0.21,0.238-0.94,0.419c1.578-0.173,2.93-0.111,4.734-0.153
						c-0.305-0.175,1.04-0.479,0.348-0.403l-2.013,0.167l0.303-0.189C29.597,115.38,30.087,115.903,28.579,115.753z"/>
					<path fill="#4D74A1" d="M109.507,118.695c-0.187,0.135,0.055,0.256,0.3,0.378C111.007,118.923,109.266,118.724,109.507,118.695
						z"/>
				</g>
			</g>
		</g>
	</g>
</g>
<path fill="#FFFFFF" d="M106.34,41.715l2.875-13.625c0,0-8-2-16.375-1.5c0,0-14.875-1.25-17.125,14.25v14.875H66.34v13.25h9v46h17.5
	V69.09h13.5l1-13.375h-14.5v-10c0,0-0.625-4.625,5.062-5.062C97.902,40.652,103.34,40.34,106.34,41.715z"/>
</svg>
