<?xml version="1.0" encoding="utf-8"?>
<!-- Generator: Adobe Illustrator 16.0.1, SVG Export Plug-In . SVG Version: 6.00 Build 0)  -->
<!DOCTYPE svg PUBLIC "-//W3C//DTD SVG 1.1//EN" "http://www.w3.org/Graphics/SVG/1.1/DTD/svg11.dtd">
<svg version="1.1" id="Layer_1" xmlns="http://www.w3.org/2000/svg" xmlns:xlink="http://www.w3.org/1999/xlink" x="0px" y="0px"
	 width="139.68px" height="139.424px" viewBox="0 0 139.68 139.424" enable-background="new 0 0 139.68 139.424"
	 xml:space="preserve">
<g>
	<rect x="22.79" y="24.045" fill="#2E779E" width="97.332" height="96.167"/>
	<g>
		<g>
			<g>
				<g>
					<path fill="#2E779E" d="M120.348,120.212c0.354,0.576,0.115-0.194,0.074-0.9L120.348,120.212z"/>
					<path fill="#2E779E" d="M120.422,119.312l0.053-0.638C120.417,118.843,120.409,119.069,120.422,119.312z"/>
					<path fill="#2E779E" d="M120.667,113.374c0.279,1.366-0.105,2.993,0.324,3.846
						C121.247,115.844,121.139,113.715,120.667,113.374z"/>
					<polygon fill="#2E779E" points="120.389,115.425 120.624,115.597 120.258,114.399 					"/>
					<polygon fill="#2E779E" points="120.174,116.28 120.26,116.108 120.022,114.237 					"/>
					<path fill="#2E779E" d="M120.836,108.757l0.064,1.368c-0.32,1.282-0.43-0.847-0.645,0.01c0.002,1.709,0.666,0.589,0.561,2.725
						c0.301-0.171-0.002-3.419,0.469-3.075C121.436,107.989,121.008,109.696,120.836,108.757z"/>
					<path fill="#2E779E" d="M118.284,26.911c0.021-0.038,0.029-0.067,0.043-0.102C118.278,26.862,118.241,26.906,118.284,26.911z"
						/>
					<path fill="#2E779E" d="M99.87,26.218c-0.311-0.049-0.621-0.078-0.924-0.098c0.094,0.049,0.211,0.094,0.365,0.129L99.87,26.218
						z"/>
					<path fill="#2E779E" d="M119.172,40.489c-0.053,0.324-0.09,0.621-0.117,0.892C119.122,41.212,119.17,40.947,119.172,40.489z"/>
					<path fill="#2E779E" d="M22.035,54.011c-0.033-0.055-0.077-0.102-0.138-0.117c-0.002,0.008-0.006,0.023-0.011,0.039
						l0.128,0.249L22.035,54.011z"/>
					<path fill="#2E779E" d="M74.598,26.95c-0.355,0.006-0.705,0.018-1.018,0.049C74.172,27.008,74.459,26.987,74.598,26.95z"/>
					<path fill="#2E779E" d="M119.209,48.632c0.002-0.125,0.002-0.232,0.004-0.34c-0.018,0.107-0.035,0.254-0.049,0.419l0.045-0.062
						C119.209,48.642,119.209,48.642,119.209,48.632z"/>
					<path fill="#2E779E" d="M107.239,26.854c-0.307-0.033-0.584-0.059-0.818-0.057C106.7,26.837,106.973,26.851,107.239,26.854z"/>
					<path fill="#2E779E" d="M121.364,87.829c0.043-0.387,0.014-0.708-0.043-0.995C121.25,87.081,121.237,87.395,121.364,87.829z"/>
					<path fill="#2E779E" d="M121.315,79.756l0.002,0.048C121.374,79.756,121.362,79.732,121.315,79.756z"/>
					<path fill="#2E779E" d="M121.358,74.596c0.004,0.032,0.008,0.061,0.012,0.092C121.411,74.628,121.418,74.596,121.358,74.596z"
						/>
					<path fill="#2E779E" d="M121.321,86.834c0.188-0.668,0.787-0.868,0.129-1.73l-0.088,0.172c0.15-0.518-0.107-1.283-0.129-1.883
						c-0.062,0.062-0.113,0.132-0.16,0.218c-0.008,0.302-0.025,0.7-0.068,1.314C120.866,85.654,121.18,86.128,121.321,86.834z"/>
					<path fill="#2E779E" d="M118.405,26.916C118.284,26.982,118.346,27.222,118.405,26.916L118.405,26.916z"/>
					<path fill="#2E779E" d="M118.897,33.401c0.008-0.227,0.014-0.452,0.021-0.685C118.895,32.937,118.872,33.152,118.897,33.401z"
						/>
					<path fill="#2E779E" d="M118.727,59.62c0.01-0.045,0.018-0.082,0.027-0.125C118.686,59.458,118.696,59.559,118.727,59.62z"/>
					<path fill="#2E779E" d="M118.924,32.086l-0.006,0.631C118.942,32.522,118.959,32.321,118.924,32.086z"/>
					<path fill="#2E779E" d="M119.084,51.748c0.006-0.038,0.012-0.076,0.018-0.108C119.092,51.662,119.086,51.703,119.084,51.748z"
						/>
					<path fill="#2E779E" d="M64.373,123.07c-0.528,0.057-0.839-0.116-1.336-0.168c-1.119,0.436,2.306,0.01,0.684,0.397
						c0.496-0.003,0.886-0.061,1.251-0.122l-0.708-0.409C63.285,122.928,64.917,122.906,64.373,123.07z"/>
					<path fill="#2E779E" d="M21.179,60.562l0.037-0.226c-0.188,0.155-0.246,0.016-0.346,0.878c0.286,0.738,0.714-0.412,1.03,0.878
						c-0.032-0.248-0.018-0.621,0.021-0.971C21.666,61.649,21.4,61.129,21.179,60.562z"/>
					<path fill="#2E779E" d="M21.921,61.121c0.006-0.016,0.013-0.023,0.021-0.037c0.039-0.057,0.072-0.118,0.102-0.188
						c0.002-0.187,0.017-0.365,0.045-0.513C22.017,60.522,21.957,60.802,21.921,61.121z"/>
					<path fill="#2E779E" d="M46.872,122.89c-0.217-0.015-0.412-0.027-0.59-0.039C46.569,122.93,46.74,122.928,46.872,122.89z"/>
					<path fill="#2E779E" d="M76.223,21.722c0.256-0.041,0.506-0.086,0.707-0.129C76.542,21.614,76.346,21.663,76.223,21.722z"/>
					<path fill="#2E779E" d="M21.584,48.105c0.032-0.197,0.052-0.402,0.065-0.624c-0.006-0.13-0.012-0.239-0.019-0.395
						L21.584,48.105z"/>
					<path fill="#2E779E" d="M25.539,89.617c-0.467-0.442,0.037,0.342-0.232,1.229l0.248,0.823
						C25.628,90.915,25.552,90.216,25.539,89.617z"/>
					<path fill="#2E779E" d="M65.025,123.209c0-0.015,0-0.027,0.008-0.042c-0.023,0.004-0.035,0.006-0.062,0.011L65.025,123.209z"/>
					<path fill="#2E779E" d="M25.64,114.011c-0.023,0.141-0.043,0.265-0.064,0.396C25.603,114.329,25.626,114.205,25.64,114.011z"/>
					<path fill="#2E779E" d="M22.123,56.232l0.027-3.139l-0.115,0.917C22.265,54.445,21.841,55.798,22.123,56.232z"/>
					<path fill="#2E779E" d="M25.812,76.228l0.283-0.279c-0.604-3.124,0.262-6.707-0.586-9.193c0.996-3.804-0.892-2.494,0-5.983
						l-0.142,0.116c0.114-5.734,0.231-11.646,0.347-17.461c0.046-2.909,0.071-5.794,0.055-8.622
						c-0.02-1.413-0.039-2.813-0.058-4.194c-0.019-0.691-0.038-1.377-0.057-2.059l-0.037-1.018c-0.006-0.229-0.013-0.201-0.02-0.231
						l-0.022-0.082l0.199,0.053l0.044-0.198l0.259,0.041l2.85,0.028c2.041,0.008,4.078,0.016,6.11,0.024
						c4.066-0.012,8.118-0.023,12.166-0.035c8.096-0.042,16.178-0.098,24.327-0.023c1.598-0.184,0.635-0.623,2.012-0.846
						c0.598,0.018,1.951-0.006,1.957,0.238c-1.158,0.135-0.506,0.352-0.902,0.447c1.928-0.025,4.416,0.258,6.133-0.041l-1.439-0.316
						c0.668-0.133,1.719-0.043,2.324-0.027c-0.256,0.162,0.623,0.508,0.102,0.584c3.627-0.786,2.828,0.338,5.881,0.027
						c0.609-0.672,4.432-1.223,6.949-1.701l1.32,0.174c-1.756-0.004,0.033,0.49-2.145,0.458c1.818,0.194,3.504-0.095,5.223,0.013
						c-0.334-0.168-0.248-0.389,0.443-0.465c1.057,0.092,1.148,0.43,2.355,0.463l-1.191,0.211c0.803,0.252,1.494-0.08,2.238-0.121
						c0.242,0.281,2.043,0.332,1.725,0.645c1.625-0.383,2.199-0.167,3.947-0.41c-1.818-0.296,0.469-0.369,0.264-0.603l-2.049,0.11
						c2.889,0.188-0.939,0.051-0.723,0.529c-1.359-0.221,1.865-0.789-0.412-0.715c2.721-0.244,3.295-0.029,6.076-0.426
						c-1.68,0.09,0.32-0.312-0.582-0.458c2.131-0.019,0.529,0.167,1.188,0.476c1.16-0.014,1.586,0.258,2.652-0.096
						c1.879,0.145-0.281,0.359,0.668,0.555c-0.695,0.33-5.23-0.406-4.717,0.646c-0.98,0.012-2.178,0.414-3.59,0.393
						c1.232,0.139,2.998,0.484,4.521,0.244l0.078-0.594c1.158-0.015,1.396-0.418,2.23-0.365c-0.443,0.172,0.357,0.422,1.289,0.373
						c-0.266-0.084-0.637-0.064-0.535-0.168c0.863-0.021,1.354-0.134,1.887-0.255c0.172-0.03,0.146-0.061,0.232-0.091
						c0.061-0.03,0.131-0.06,0.211-0.087c0.16-0.054,0.361-0.101,0.623-0.128c-0.355-0.077-0.6-0.16-0.867-0.256
						c-0.047-0.024-0.16-0.049-0.299-0.074c-0.127-0.025-0.26-0.052-0.4-0.08c-0.283-0.051-0.604-0.108-0.998-0.18
						c0.213-0.208,0.492-0.223,0.836-0.192c0.324,0.03,0.812,0.106,1.074,0.081c-0.105,0.057-0.229,0.068-0.059,0.15l0.719-0.199
						c0.701,0.09,0.512,0.24,0.348,0.394c-0.178,0.153-0.322,0.309-0.006,0.409c0.033,0.048,0.068,0.079,0.109,0.098
						c-0.117,0.446,0.266,0.401,0.094,0.875c0.039-0.042,0.08-0.088,0.107-0.126c-0.008,0.104-0.018,0.178-0.029,0.232
						c0.01-0.006,0.018-0.012,0.029-0.016c0.012,0.137,0.023,0.276,0.033,0.411c0.016,0.261,0.029,0.513,0.041,0.74
						c0.039,0.481,0.107,0.861,0.264,1.021c-0.141,0.118,0.041,0.98,0.137,1.346c0.125,0.626,0.492,2.121-0.008,3.054l-0.004-0.07
						c-0.059,1.396-0.215,2.484-0.383,2.184l-0.125,2.254l-0.404-0.242c0.109,2.053,0.346,1.849,0.764,3.256
						c-0.24,1.471-0.047,4.042,0.104,5.014c-0.016,0.162-0.018,0.41,0.004,0.817l0.158-0.856c-0.018,1.602,0.197,1.407,0.199,2.465
						c0.037-0.22,0.061-0.251-0.004,0.34c-0.008,0.179-0.018,0.372-0.029,0.606c-0.043-0.053-0.037-0.29-0.016-0.527l-0.135,0.193
						c-0.43,1.281,0.244,1.966,0.094,3.334c-0.016-0.131-0.043-0.351-0.039-0.49c-0.109,0.77-0.682,1.875-0.332,2.193
						c-0.045,0.178,0.025,0.448,0.111,0.713l-0.061,0.566c0.02-0.232,0.041-0.411,0.062-0.559c0.115,0.352,0.26,0.686,0.174,0.73
						l-0.072,1.967c-0.059,0.373-0.008,0.879,0.049,1.289l-0.168,0.334c0.025,0.717-0.074,0.723-0.121,0.638
						c-0.582,2.488,0.299,3.848-0.207,6.537c0.281,0.513,0.408-0.599,0.559-0.684c0.215,0.419,0.408,1.957,0.561,2.728
						c-0.387,1.196-0.729,4.87-1.287,4.28c-0.043,2.217,0.344-0.69,0.537,0.419l-0.023,0.255c0.066-0.766,0.258-1.364,0.473-1.794
						c0.301-0.168,0.389,1.789,0.303,2.388l-0.43-0.42c0.15,2.044,0.795,1.617,1.225,2.89c-0.17,1.627-0.559,0.691-0.943,1.035
						l0.107,1.709h-0.322c0.086,1.11,0.387,1.369,0.26,2.906c-0.305-1.11-0.301,2.308-0.709,0.771
						c-0.107,0.854,0.516,1.101,0.086,1.537c0.344,0.593,0.172-0.767,0.279-1.198c0.494-0.349,0.236,1.876,0.365,2.901
						c-0.256,0.086-0.301-0.685-0.471,0.522c0.193,0.247,0.344,1.015,0.107,1.699c0.322,0,0.064,1.369,0.045,2.053
						c0.062-0.771,0.299-1.882,0.576-1.378c0.131,0.598,0.195,1.114,0.152,2.479l0.15-0.939c0.473,1.192-0.342,1.969-0.191,3.592
						c-0.195-0.685-0.195-1.112-0.43-1.709c0.15,0.768,0.387,2.222,0.537,3.417l-0.471,1.369c0.236,0.17-0.021,1.538,0.301,1.538
						c-0.217,1.703-0.387-1.368-0.623-1.538c-0.213,2.137,0.537,1.711,0.043,3.76l-0.299-0.681c-0.021,0.681,0.15,2.05,0,2.135
						c0.107,0,0.064-0.343,0.064-0.769c0.645,0.419,0.451,3.153,1.117,2.899l0.043-0.942c0.129,1.444,0.58,2.473,0.346,3.583
						c-0.215,0.854-0.451-0.598-0.623-1.104c-0.043,1.36,0.73,1.104,0.666,2.729c0.107-0.854,0.344-0.69,0.516-0.179
						c0.043-0.938,0.17-2.9-0.109-2.556l-0.064,0.341c-0.172-0.086-0.236-0.599-0.322-0.854c0-1.284,0.301-0.599,0.43-0.855
						c0.105-2.136-0.666-0.174-0.645-2.129l0.129-0.256c-0.172-0.941-0.195-2.394-0.604-2.651c0.43-0.855-0.172-2.216,0.084-3.153
						c0.945-0.179-0.064,3.324,0.453,4.436c0.193-1.024,0.451,0.588,0.666,1.018l-0.408-3.238c0.129-0.259,0.6-1.207,0.256-1.796
						l-0.021,0.255c-0.107-1.284-0.494-0.938-0.365-2.05c0.086-0.172,0.236,0.169,0.301,0.255c0.086-1.025-0.215-0.854-0.301-1.538
						c0.084-1.024,0.387,0.513,0.492-0.343c-0.365-1.188,0.086-1.879,0.062-2.908c-0.535,0.438-0.73-4.092-1.201-1.87l-0.367-2.47
						c0.279-0.771,0.752,1.699,1.203,1.016l-0.02,1.967c0.666-0.325-0.438-4.119,0.309-5.424c0.029-1.05-0.064-0.793,0.268-2.782
						l-0.598,0.341c0.139-1.031,0.463-1.365,0.572-1.413c-0.039-0.605-0.023-1.149,0.002-1.711c0.088,0.148,0.168,0.357,0.199,0.724
						c0.33-0.776,0.207-1.002,0.031-1.273c-0.15-0.419-0.131-1.057-0.125-1.702l0.221,0.581c-0.049-0.394-0.113-0.878-0.221-0.922
						c-0.002-0.268-0.016-0.522-0.053-0.765c-0.104,0.173-0.451,0.599-0.605,1.523c0.234-2.392,0.105-4.267,0.598-6.316
						c0.172,0.076,0.387,0.933,0.408,0.675c0.086-1.024-0.215-2.137-0.473-2.044c-0.018-0.232-0.023-0.41-0.025-0.566
						c0.148-0.195,0.307-0.436,0.332-0.923c0.055-0.111,0.102-0.296,0.121-0.646c-0.473-0.343-0.236-2.308-0.451-2.733
						c-0.049,0.463-0.045,1.03-0.029,1.606c-0.314-0.825-0.676-1.562-0.422-2.199c0.301,1.531,0.492-1.633,0.623,0.674
						c0.6-1.622-0.43-0.846-0.217-2.562l0.236-1.11c0.344,0.169,0.172,1.797,0.301,1.538l-0.043-0.771
						c0.258,0.771,0.088,3.677,0.475,5.465l0.191-3.59c-0.41-4.523,0.061-10.167-0.693-14.006l0.01,0.163
						c-0.033-0.066-0.098-0.099-0.229-0.153l0.086-0.173l-0.26-0.76c0.322-0.863,0.387-2.479,0.643-3.855
						c-0.213,0.864-0.213,0.864-0.471,0.949c-0.344-0.172-0.49-0.305-0.363-1.588c0.244-0.014,0.238,0.778,0.432-0.168
						c-0.119,0.488-0.291,0.054-0.322-0.506c0.158-0.723,0.191-1.927,0.438-1.942c0.066,0.334-0.018,0.604-0.055,0.831
						c0.066,0.334,0.221-1.359,0.422-0.366l-0.07-1.305c0.203-0.762,0.322,0.506,0.453,0.203c-0.166-2.17-0.729-3.281-0.895-5.246
						c0.129,0.093,0.676,0.114,0.518,0.093c0.164-1.511-0.594-3.24-0.639-4.96c0.162,0.253,0.098,0.896,0.176,1.416
						c0.045-1.3,0.086-2.541,0.127-3.748c0.041-1.784,0.082-3.518,0.121-5.235c-0.889-0.026-1.771-0.053-2.656-0.079
						c-0.865-0.034-1.73-0.068-2.602-0.103c-1.193-0.078-2.4-0.177-3.648-0.309l-1.283,0.561l-1.289-0.373
						c-5.191-0.357-9.178,0.004-14.113,0.172c-1.537,0.036-0.924-0.391-1.646-0.549c-3.373-0.063-4.197,0.569-7.412,0.695
						c0.441-0.172,1.195-0.654-0.188-0.678c-0.26,0.162-0.428,0.416-1.301,0.316l0.443-0.172c-0.799-0.252-1.57-0.014-3.225-0.121
						c-2.922,0.012-5.711,0.408-8.113,1.027c-2.584-0.057,0.268-0.604-0.223-0.725c1.822,0.205,1.268-0.1,1.662-0.293
						c-0.965,0.159-2.131,0.256-2.627-0.145c-1.343,0.024-1.95,0.006-3.278,0.275c0.668-0.135,1.241,0.081,0.615,0.262
						c-1.099-0.139-3.896,0.014-3.741-0.486c-6.363,0.098-13.483-0.008-20.298,0.016c-1.149,0.258,0.872,0.1,0.241,0.281
						c-1.671,0.336-1.32-0.174-2.658,0.094l0.552-0.273c-1.989-0.041-4.103,0.465-6.03,0.717c0.319-0.311-1.583-0.258,0.018-0.442
						c-0.942,0.052-2.087-1.339-2.814-1.054l1.062,1.295c-0.053,0.127-1.374,0.049-1.242,0.135
						c-0.824-0.256-1.834-0.556-2.403-0.556c-0.278-0.327,1.154-0.257,1.937-0.249c0.117-0.547-2.643-0.351-1.506-0.852
						c-1.681,0.09,0.239,0.28-0.766,0.482l-1.466-0.117l1.132,0.184c-1.224,0.164-1.644,0.58-3.276,0.274l-1.694,0.534
						c-0.086-0.216-0.395-0.235-0.792-0.214c-0.198,0.014-0.418,0.028-0.644,0.044c-0.24,0.013-0.393,0.016-0.816-0.01
						c-0.016,0,0.253-0.068,0.416-0.138c0.137-0.068,0.273-0.138,0.273-0.138c-0.41-0.002-0.757-0.004-1.063-0.006
						c-0.378-0.015-0.706-0.027-1.011-0.039c-0.616-0.036-1.154-0.094-1.852-0.173c0.475-0.189,0.99-0.167,1.391-0.142
						c0.407,0.025,0.713,0.053,0.937-0.127l-2.46-0.127c0.124,0.244-1.159,0.437,0.532,0.584c-0.771,0.196-1.298,0.377-2.019,0.518
						c0.187,1.302,0.3,2.753,0.279,5.241c-0.104,0.335-0.18,0.412-0.241,0.349c-0.031-0.032-0.057-0.099-0.082-0.187
						c-0.025-0.087-0.048-0.176-0.071-0.389c-0.092-0.734-0.184-1.702-0.39-1.288c-0.006,0.333-0.012,0.648-0.017,0.95
						c0,0.306,0.004,0.621,0.013,0.729c0.018,0.316,0.052,0.603,0.099,0.865c0.093,0.524,0.232,0.954,0.376,1.344
						c0.288,0.779,0.591,1.399,0.565,2.299c-0.171,2.29,0.215,2.159,0.242,4.482c-0.285-0.738-0.305,1.624-0.576,2.051l-0.295-0.917
						c0.088,0.706-0.023,1.384-0.231,1.175c0.385-0.131,0.36,3.014,0.543,4.614l0.328-0.279c0.109,1.252,0.316,2.985,0.232,4.312
						c0.106,1.975,0.396,1.524,0.754,3.048c-0.297,0.839-0.646,0.746-1.006,0.466c0.168-0.528,0.07-1.422,0.171-2.292
						c-0.283-2.495-0.975-4.436-0.816-6.925c-0.795-1.08,0.092,1.68-0.188,2.89c-0.048-0.036-0.063-0.124-0.071-0.216
						c-0.001,0.107-0.005,0.203-0.023,0.303c-0.098-0.893-0.225-2.347-0.631-2.589c0.082,1.493,0.795,1.082,0.453,2.938
						c0.222,1.376-0.404,2.496-0.459,3.327c0.297,0.917,0.936,0.956,0.813,3.21l-0.446-0.987c-0.009,2.549,0.653,1.196,0.633,3.557
						c0.053-0.829,0.438,0.803,0.45-0.774c0.238,0.774,0.283,2.494,0.154,3.776c0.068,0.334,0.151,0.07,0.303,0.132
						c0.311-1.422-0.301-2.245,0.145-3.411l-0.48-0.987c0.174-1.318,0.561-1.453,0.75-0.645c-0.02-0.373-0.086-0.699-0.002-0.972
						c0.723-0.226-0.257,1.586,0.356,2.044l-0.051-0.933c0.469-0.404,0.412,2.178,0.379,3.381c-0.221,1.359-0.301,2.603-0.641,2.696
						l-0.146-1.826c-0.272,0.948,0.16,2.331,0.146,3.396c-0.047,0.07-0.082,0.171-0.106,0.296c0.03-0.055,0.061-0.086,0.094-0.086
						c-0.017,0.226-0.058,0.428-0.14,0.599c-0.018,0.933,0.19,2.3,0.082,3.171l0.304-0.109l-0.171-0.116
						c0.012-0.854,0.199-2.013,0.425-1.368c0.211,1.928-0.375,2.316-0.639,2.774c-0.466-0.442,0.004-1.881-0.155-2.859
						c-0.46,0.591-0.048,1.958-0.353,3.947c-0.506-0.792,0.007-2.308-0.459-2.743c-0.086,1.601,0.272,2.021,0.145,3.707
						c-0.234-0.216-0.256-1.857-0.557-1.75l-0.144,1.082c-0.029-2.658-0.629,0.466-0.752-1.609
						c-0.207,0.979,0.412,1.368,0.092,2.759c0.22-0.389,0.621-1.499,0.818-0.169l-0.148,1.506c-0.244,0.63-0.538-1.569-0.744-0.591
						l0.172,1.578c0.15-0.055,0.226-0.809,0.433-0.335c-0.162,0.91,0.582,1.492,0.805,2.564c-0.012,0.855-0.043,1.531-0.219,1.835
						c0.445,2.152,0.43,4.88,0.854,6.861c-0.303-1.352-0.516,0.055-0.743,0.863c-0.063-1.557-0.536-1.568-0.839-1.462
						c0.051,0.948,0.538,1.57,0.696,1.093c-0.193,1.581,0.328,1.092,0.01,2.482c-0.164,0.901-0.467-0.451-0.645-0.14
						c-0.021,1.709,0.574,0.466,0.463,2.323c-0.063-0.101-0.082-0.271-0.17-0.124c-0.1,1.002,0.123,2.082,0.357,2.298
						c-0.616,1.066,0.066,3.01-0.532,2.8c0.16,2.425,0.327-0.361,0.536,0.116c0.266,0.993,0.048,2.829-0.047,3.404
						c-0.013-0.599-0.177-1.15-0.084-1.726l-0.416,0.511c-0.296,3.018,0.942,1.914,0.581,4.828c-0.217-1.5-0.315-0.497-0.609-1.243
						c0.104,0.45-0.013,2.735,0.306,1.352c-0.035,1.096-0.11,1.857-0.186,2.611c0.16,0.972,0.275,2.028,0.547,2.594
						c-0.043,1.532-0.338,2.667-0.52,3.399c0.301,3.224-0.213,6.199,0.107,9.596l0.025-0.249c-0.019,0.559,0.006,1.2,0.054,1.236
						c0.048,0.086,0.119-0.155,0.192-0.377c0.146-0.444,0.3-0.81,0.292,1.199c-0.47-0.388-0.366,2.197-0.557,3.934
						c0.136,0.017,0.247,0.035,0.344,0.057c1.338,0.065,2.671,0.075,3.934,0.058c0.315-0.006,0.627-0.012,0.937-0.018
						c0.215-0.009,0.428-0.017,0.639-0.024c0.361-0.021,0.718-0.041,1.073-0.061c1.418-0.083,2.803-0.156,4.35,0.015
						c-0.023,0.107-0.226,0.234-0.824,0.247c2.362,0.161,4.266,0.059,6.396,0.086l-0.093,0.062
						c3.413,0.413,6.512-0.084,10.048-0.206c-0.288,0.063-0.361,0.256-0.583,0.324c1.78,0.114,4.624,0.188,5.875-0.275
						c2.114,0.501,1.399-0.153,4.119,0.333c0.155,0.09-0.27,0.084-0.451,0.104c1.336,0.168,2.285,0.116,3.637,0.176
						c2.984-0.324,3.723-0.98,7.188-0.783c0.179,0.693-2.129,0.172-2.207,0.724c0.691-0.123,1.29-0.265,2.246-0.1
						c-0.575,0.271-0.124,0.17-0.521,0.423c0.73,0.183,2.945-0.722,2.93-0.657c0.039-0.134-0.21-0.206-0.896-0.187
						c0.81-0.426,3.405-0.035,5.085-0.207c-0.545-0.012-2.262-0.147-1.617-0.475c2.254,0.146,3-0.52,4.576-0.795
						c2.076,0.313-1.529,0.582-1.141,1.067c0.35,0.178,1.18,0.565,0.311,0.755c1.865,0.104,3.209-0.312,4.871-0.418l-0.045,0.137
						c2.322-0.057,4.801-0.656,6.752-0.38l-1.033-0.157c0.381-0.082,1.555-0.042,2.199-0.322c-0.07,0.229,1.445,0.434,0.824,0.622
						c1.033-0.731,5.283-0.444,6.441-1.136c0.621,0.183,0.125,0.479-0.062,0.646c-1.469-0.063-1.965-0.208-2.734,0.084
						c1.219-0.011,2.113,0.177,1.926,0.344c1.221-0.455,4.127-0.634,4.742-1.089c0.893,0.229,1.742,0.352,1.43,0.73
						c3.742-0.235-1.85-1.169,2.377-1.163c1.928,0.367-1.881,0.497,0.777,0.622l-0.49,0.06c1.92,0.977,1.346-0.696,3.521-0.664
						c0.289,0.532-1.516,0.38-0.016,0.761c1.988-0.134,2.859-0.922,4.85-0.751l-0.312,0.226c1.275-0.042,3.746,0.066,5.014,0.024
						c0.062,0.104-0.125,0.09-0.365,0.118c2.346,0.201,0.979-0.271,2.898,0.096l0.551-0.258c-0.963-0.184-2.828-0.443-4.049-0.14
						c1.221-0.304-1.91-0.673-1.305-1.126l-0.24,0.183c-3.188-0.78-7.291-0.878-11.332-1.171c-2.549,0.543-4.336-0.219-7.07,0.156
						c-0.428,0.621-0.514,0.125-2.859,0.25c1.242-0.077,0.146-0.473-0.639-0.557c-0.457,0.16-1.018,0.219-1.576,0.275
						c-0.475-0.213-3.436-0.713-4.516-0.291c-1.43-0.199,0.334-0.199,0.645-0.328c-0.582-0.318-1.164,0.25-1.639,0.036
						c0,0,0.023-0.067,0.172-0.099c-2.186,0.025-3.49-0.137-5.768-0.215c-0.188,0.609-2.238,0.229-3.248,0.447
						c0.326-0.196-1.283-0.228-1.928-0.343l-1.221,0.452c-1.203,0.386-1.678-0.271-3.236-0.062l0.377,0.109
						c-1.142,0.183-4.142-0.184-5.261-0.512c-10.53,1.191-16.289-0.669-27.385-0.346c-0.723,0.184,0.528,0.309-0.039,0.58
						c-1.127,0.07-1.383,0.045-2.409,0.054c0.908,0.163,0.762-0.04,0.645,0.13l1.574-0.172c0.074,0.045-0.097,0.063,0.051,0.15
						c0.528-0.057,1.15-0.179,1.828-0.146c-0.974,0.158-1.246,0.608-2.574,0.437c0.101-0.062,0.272-0.081,0.622-0.119
						c-1.096-0.036-1.15,0.18-1.976,0.061c-1.008-0.101-0.76,0.038-0.892-0.157l-3.131-0.243c-1.562,0.539-3.489,0.026-3.995-0.023
						c0.342-0.403,2.075-0.124,2.844-0.521l-1.129-0.295l-0.068,0.323l-1.608-0.089l0.091-0.062c-0.19,0.125-0.387,0.25-0.799,0.14
						c-0.07-0.045-0.225-0.133-0.046-0.151c0.035,0-1.246,0.178-1.002,0.178c0.196-0.334-0.271-0.1-0.103-0.484
						c-0.124-0.046-0.217-0.041-0.345-0.015c-0.044-0.112-0.146-0.21-0.187-0.394l-0.012-0.068
						c-0.003-0.037-0.005-0.005-0.005-0.159c0-0.229,0.004-0.467,0.017-0.716c0.025-0.498,0.08-1.045,0.181-1.674
						c-0.182,0.536-0.608-1.043-0.537-2.056c0.094-0.587,0.182-0.734,0.328-0.361l-0.197-1.329c0.602-1.663,0.214-3.287,0.42-5.727
						l0.17,0.128c-0.201-0.905-0.361-1.877-0.298-3.236l0.339,0.248c0.239-1.659-0.713-1.267-0.496-3.101
						c-0.365,0.01-0.552,1.166-0.898,1.345c0.371-0.434,0.426-2.401,0.162-1.943c-0.149-1.826,0.01-1.267,0.098-1.422l-0.223-1.072
						c0.018-1.284,0.479-0.412,0.688,0.062c-0.393-1.197-0.116-2.503-0.055-3.86l0.164,0.55l0.066-1.787
						C25.021,89.68,25,88.048,25.15,86.54l0.48,1.041c0.25-1.057-0.167-0.544-0.248-0.823c-0.234-1.671,0.092-2.028,0.363-2.91
						C25.244,81.17,26.533,78.521,25.812,76.228z M118.956,58.982l0.072-0.247C119.11,59.295,119.188,59.613,118.956,58.982z
						 M119.092,44.29c0.188,1.771-0.039,1.209-0.172,1.343c0.131-1.741-0.023-2.711,0.135-4.252
						c-0.096,0.248-0.225,0.296-0.305,0.375c0.023-0.613,0.129-1.229,0.373-1.438C119.606,41.078,118.813,45.057,119.092,44.29z
						 M121.467,77.369c-0.037-0.062-0.074-0.131-0.107-0.208c0,0,0,0,0-0.01L121.467,77.369z M121.04,68.612
						c0.104-0.125,0.16-0.342,0.199-0.605C121.11,68.169,121.004,68.325,121.04,68.612z M121.633,51.181
						c0.201-0.403,0.141-1.321,0.094-1.989C121.706,49.504,121.643,50.064,121.633,51.181z M37.292,22.751
						c0.528-0.078,1.521-0.279,0.614-0.426c-0.435,0.172-1.276-0.127-1.644,0.137c-0.053-0.01-0.06-0.016-0.09-0.023
						C36.7,22.603,37.135,22.74,37.292,22.751z M23.13,61.237c-0.198-0.093-0.413-0.481-0.562-0.233
						c0.005-0.043,0.011-0.101,0.016-0.147c-0.067,0.132-0.123,0.241-0.167,0.14c-0.039,0.42-0.087,0.863-0.03,1.158
						C23.033,62.298,23.136,63.188,23.13,61.237z"/>
					<path fill="#2E779E" d="M20.48,43.971c0.006,0.2,0.011,0.356,0.015,0.481C20.491,44.321,20.486,44.171,20.48,43.971z"/>
					<path fill="#2E779E" d="M22.39,62.069c0.041,0.038,0.105-0.459,0.178-1.065C22.488,61.129,22.423,61.424,22.39,62.069z"/>
					<path fill="#2E779E" d="M119.29,105.865l-0.064-0.512l-0.193,1.025c0.215,1.709,0.494,1.795,0.816,2.215
						c-0.301-1.531-0.15-2.47-0.238-4.437L119.29,105.865z"/>
					<path fill="#2E779E" d="M121.436,104.997c0.086-0.172,0.301-0.601,0.322-0.856l-0.195-0.255L121.436,104.997z"/>
					<path fill="#2E779E" d="M122.377,84.747l-0.172,1.623C122.377,86.883,122.678,85,122.377,84.747z"/>
					<path fill="#2E779E" d="M118.981,91.949l0.217,0.854c0.172-0.767,0.15-1.795-0.086-1.964
						C119.241,91.864,118.981,91.094,118.981,91.949z"/>
					<path fill="#2E779E" d="M122.418,80.387c-0.387-0.507,0.172-1.625-0.193-1.959C122.333,78.854,122.032,80.307,122.418,80.387z"
						/>
					<path fill="#2E779E" d="M118.743,81.526c-0.365,0.516-0.043,1.368-0.129,2.396C118.614,83.066,119,81.869,118.743,81.526z"/>
					<path fill="#2E779E" d="M121.321,71.684c0.277,0.082,0.258,0.768,0.193,1.537c-0.086-0.258-0.215-0.427-0.258-0.77
						c0.215,1.281,0.172,1.368,0.301,2.394c0.193-1.025,0.32-2.565,0.664-2.4C121.963,71.684,121.577,70.74,121.321,71.684z"/>
					<path fill="#2E779E" d="M118.698,79.056c-0.107,0.855-0.363,1.368-0.342,2.394c0.193-0.178,0.473-0.519,0.428-1.717
						l0.322,0.428C119.342,79.049,118.678,80.596,118.698,79.056z"/>
					<path fill="#2E779E" d="M122.069,66.979l-0.148,0.516c0.258,1.196,0.129,2.733,0.537,3.408
						C122.436,69.458,122.262,67.663,122.069,66.979z"/>
					<path fill="#2E779E" d="M119.297,74.86l-0.451-0.162c-0.062,1.194,0.15-0.087,0.258,0.341c-0.064,0.341-0.105,0.854-0.02,1.104
						C119.018,74.783,119.448,76.056,119.297,74.86z"/>
					<path fill="#2E779E" d="M118.801,70.936l-0.193-1.531l-0.492,1.197C118.286,72.396,118.395,70.687,118.801,70.936z"/>
					<path fill="#2E779E" d="M119.102,69.053l0.086-0.171l-0.666-2.298C118.801,67.952,118.758,68.036,119.102,69.053z"/>
					<path fill="#2E779E" d="M122.032,41.196c-0.193-0.258-0.434,1.088-0.219,0.513C121.973,41.967,122.223,40.171,122.032,41.196z"
						/>
					<path fill="#2E779E" d="M118.42,46.689c0.145-0.653-0.129-2.798-0.262-3.736C118.252,44.071,118.159,46.847,118.42,46.689z"/>
					<path fill="#2E779E" d="M118.106,42.57c0.01,0.076,0.029,0.218,0.053,0.383C118.145,42.781,118.129,42.657,118.106,42.57z"/>
					<path fill="#2E779E" d="M99.163,27.056c-0.102,0.006-0.201,0.02-0.285,0.051C98.975,27.089,99.061,27.073,99.163,27.056z"/>
					<path fill="#2E779E" d="M100.104,26.942c0.639,0.065,1.902-0.053,2.121-0.262c-1.002,0.099-1.889,0.159-3.062,0.375
						C99.604,27.032,100.143,27.179,100.104,26.942z"/>
					<path fill="#2E779E" d="M91.038,26.843c0.471-0.123,1.117-0.061,0.953-0.248C91.725,26.511,90.723,26.712,91.038,26.843z"/>
					<path fill="#2E779E" d="M29.955,21.206c-0.873-0.102-1.384-0.023-1.149,0.259C29.783,21.46,29.248,21.292,29.955,21.206z"/>
					<polygon fill="#2E779E" points="27.686,21.523 27.568,21.384 26.995,21.169 					"/>
					<path fill="#2E779E" d="M19.857,23.221c-0.045-0.113-0.094-0.443-0.123-0.778C19.773,23.128,19.812,23.696,19.857,23.221z"/>
					<path fill="#2E779E" d="M19.716,22.097c0.005,0.107,0.012,0.235,0.018,0.346C19.729,22.333,19.722,22.204,19.716,22.097z"/>
					<path fill="#2E779E" d="M19.806,21.418l-0.15-0.273c0.022,0.211,0.041,0.591,0.061,0.952
						C19.707,21.775,19.726,21.459,19.806,21.418z"/>
					<path fill="#2E779E" d="M19.806,26.621c0,0,0.107-0.515,0.214-1.029c0.107-0.478,0.214-0.955,0.214-0.955
						c-0.105-1.112-0.161-0.556-0.246,0.043c-0.085,0.58-0.202,1.241-0.431,0.005L19.806,26.621z"/>
					<path fill="#2E779E" d="M19.925,30.962c-0.139,1.095,0.536,2.674,0.029,3.294c0.266,3.102,0.846-0.716,1.038,2.832
						c0.262-3.354-0.977-1.705-0.695-4.681C19.982,33.846,20.047,31.442,19.925,30.962z"/>
					<path fill="#2E779E" d="M20.778,30.434c-0.254-0.178-0.277,1.213-0.107,1.646C20.699,31.676,21.054,30.978,20.778,30.434z"/>
					<polygon fill="#2E779E" points="20.153,37.022 19.958,37.971 20.121,38.22 					"/>
					<path fill="#2E779E" d="M20.052,40.619l-0.295-0.923C19.873,40,19.849,41.384,20.052,40.619z"/>
					<path fill="#2E779E" d="M19.685,45.626c-0.1,0.869,0.581,1.655,0.432-0.179l-0.026,0.418
						C19.985,45.758,19.745,46.744,19.685,45.626z"/>
					<path fill="#2E779E" d="M20.753,57.212c0.015-0.599-0.072-1.306-0.213-1.181l0.139,1.64L20.753,57.212z"/>
					<path fill="#2E779E" d="M22.408,56.971c0.414-0.552-0.033-1.538,0.104-2.626C22.431,55.58,22.375,55.433,22.408,56.971z"/>
					<path fill="#2E779E" d="M20.166,59.085c-0.17-0.443-0.061-1.127-0.033-1.539C19.897,57.748,19.958,58.875,20.166,59.085z"/>
					<path fill="#2E779E" d="M20.307,61.696c-0.167,0.536-0.231-0.117-0.345,0.287c-0.187,1.15-0.162,2.354,0.066,3.008
						c0.176-0.304,0.655-0.716,0.863-0.241c-0.146-1.834-0.913-2.772-0.323-3.666l-0.721-1.533
						C19.73,61.02,20.351,60.678,20.307,61.696z"/>
					<path fill="#2E779E" d="M21.678,57.989l-0.242,0.982c0.234-0.197,0.275,0.548,0.352,1.069
						C22.316,59.784,21.709,58.549,21.678,57.989z"/>
					<polygon fill="#2E779E" points="20.625,71.868 20.747,73.951 20.777,73.275 					"/>
					<polygon fill="#2E779E" points="20.457,73.205 20.304,73.26 20.584,74.853 					"/>
					<polygon fill="#2E779E" points="20.277,75.389 20.3,75.14 20.168,73.914 					"/>
					<path fill="#2E779E" d="M20.174,79.732l0.222-0.383c-0.059-0.526,0.191-1.583-0.11-1.481
						C20.388,78.326,20.351,79.422,20.174,79.732z"/>
					<path fill="#2E779E" d="M25.822,94.129c-0.147-0.377-0.277-0.151-0.41,0.073l0.379,0.599
						C25.771,94.622,25.734,94.272,25.822,94.129z"/>
					<path fill="#2E779E" d="M25.207,96.643l0.432,1.546c0.066-1.779-0.273-2.027-0.34-3.582c-0.137,0.658,0.172,1.577,0.054,2.409
						L25.207,96.643z"/>
					<path fill="#2E779E" d="M30.195,118.125c-0.14,0.277,0.21,0.238-0.94,0.419c1.578-0.173,2.93-0.111,4.734-0.153
						c-0.305-0.175,1.04-0.479,0.348-0.403l-2.013,0.167l0.303-0.189C31.213,117.752,31.703,118.275,30.195,118.125z"/>
					<path fill="#2E779E" d="M111.124,121.067c-0.188,0.135,0.055,0.256,0.299,0.378
						C112.624,121.295,110.881,121.096,111.124,121.067z"/>
				</g>
			</g>
		</g>
	</g>
</g>
<image display="none" overflow="visible" width="400" height="400" xlink:href="../../../../../../../Documents/Graphic Design Semseter 2/Computer Graphics 2/Week 13/Images/linkedin-icon-logo-vector.png"  transform="matrix(0.2708 0 0 0.2708 15.4497 15.8418)">
</image>
<circle fill="#FFFFFF" cx="46.456" cy="49.378" r="7.833"/>
<rect x="39.623" y="61.878" fill="#FFFFFF" width="13.667" height="41.334"/>
<path fill="#FFFFFF" d="M60.956,61.878H74.79v5.167c0,0,4-6.334,12.166-6.167c0,0,13.666-1.499,15,13.168v29.166H88.622V80.546
	c0,0,0.502-8.001-6.332-8.834c0,0-7.502,0.166-7.75,7.75v23.75H60.956V61.878z"/>
</svg>
