<?xml version="1.0" encoding="utf-8"?>
<!-- Generator: Adobe Illustrator 16.0.1, SVG Export Plug-In . SVG Version: 6.00 Build 0)  -->
<!DOCTYPE svg PUBLIC "-//W3C//DTD SVG 1.1//EN" "http://www.w3.org/Graphics/SVG/1.1/DTD/svg11.dtd">
<svg version="1.1" id="Layer_1" xmlns="http://www.w3.org/2000/svg" xmlns:xlink="http://www.w3.org/1999/xlink" x="0px" y="0px"
	 width="156.923px" height="156.153px" viewBox="0 0 156.923 156.153" enable-background="new 0 0 156.923 156.153"
	 xml:space="preserve">
<g>
	<rect x="6.839" y="9.778" fill="#317A80" width="142.308" height="141.539"/>
	<g>
		<g>
			<g>
				<path fill="#191919" d="M149.415,150.653c-0.034,0.838,0.02,0.537,0.021,0.663C149.488,149.914,149.4,150.688,149.415,150.653z"
					/>
				<polygon fill="#191919" points="149.582,136.817 149.627,137.062 149.535,135.022 				"/>
				<path fill="#191919" d="M149.797,123.88c-0.32,1.223-0.019,4.688-0.161,6.993l-0.064,0.38l0.185,1.04
					C149.788,129.491,149.684,125.853,149.797,123.88z"/>
				<path fill="#191919" d="M150.675,116.981c-0.152,0.425-0.078-1.492-0.09,1.608c0.022-0.154,0.029-0.201,0.043-0.291
					C150.638,118.02,150.651,117.636,150.675,116.981z"/>
				<path fill="#191919" d="M150.628,118.299C150.597,119.661,150.769,117.406,150.628,118.299L150.628,118.299z"/>
				<path fill="#191919" d="M150.719,112.006l0.086,1.795c0.098-0.375,0.166-1.973,0.214-1.379
					C151.001,110.581,150.894,110.96,150.719,112.006z"/>
				<path fill="#191919" d="M150.469,110.305l0.038,0.93C150.549,111.071,150.569,110.825,150.469,110.305z"/>
				<path fill="#191919" d="M150.583,113.207l-0.076-1.973c-0.07,0.26-0.196,0.287,0.024,0.905
					C150.418,111.979,150.522,112.368,150.583,113.207z"/>
				<path fill="#191919" d="M150.498,114.323c-0.106,1.007-0.182,2.308-0.273,0.506
					C150.208,118.263,150.462,117.757,150.498,114.323z"/>
				<path fill="#191919" d="M149.48,123.219l-0.101,1.347l0.094,1.164C149.427,125.147,149.579,123.136,149.48,123.219z"/>
				<path fill="#191919" d="M151.229,100.826c-0.096-0.112-0.275,0.603-0.401,0.737l0.081,1.325
					C150.989,102.208,151.081,100.916,151.229,100.826z"/>
				<path fill="#191919" d="M150.827,101.563l-0.13-1.983C150.646,101.352,150.718,101.676,150.827,101.563z"/>
				<polygon fill="#191919" points="150.025,109.984 150.274,113.242 150.029,109.356 				"/>
				<polygon fill="#191919" points="151.43,93.25 151.646,94.375 151.323,92.372 				"/>
				<path fill="#191919" d="M151.501,88.226c0.194,0.832,0.393-1.141,0.503-0.261c0.001-1.365-0.16-2.531-0.309-3.58
					C151.767,85.5,151.713,86.688,151.501,88.226z"/>
				<path fill="#191919" d="M151.479,82.623c0.044,0.557,0.128,1.134,0.216,1.762C151.657,83.792,151.595,83.209,151.479,82.623z"/>
				<path fill="#191919" d="M150.812,96.201c0.064-0.153,0.233-0.449,0.328-1.562l-0.31,0.78
					C150.824,95.658,150.817,95.928,150.812,96.201z"/>
				<path fill="#191919" d="M150.819,95.447l0.011-0.027c0.023-0.847,0.04-1.434,0.047-1.686
					C150.87,93.95,150.853,94.467,150.819,95.447z"/>
				<path fill="#191919" d="M150.807,96.397c0.001-0.072,0.003-0.125,0.005-0.196C150.781,96.276,150.771,96.321,150.807,96.397z"/>
				<path fill="#191919" d="M150.33,104.785c-0.124-1.166-0.263-3.596-0.515-1.244C149.987,104.377,150.135,103.031,150.33,104.785z
					"/>
				<path fill="#191919" d="M150.429,97.366l-0.095,2.106c0.074-0.041,0.188-0.421,0.257,0.156L150.429,97.366z"/>
				<polygon fill="#191919" points="150.353,96.335 150.429,97.366 150.465,96.585 				"/>
				<path fill="#191919" d="M151.106,86.231c-0.124-0.91-0.121-1.906-0.126-3.03c-0.084,1.206-0.137,2.452-0.153,3.635
					C150.925,87.003,151.096,87.522,151.106,86.231z"/>
				<path fill="#191919" d="M150.939,90.71c-0.004-0.063-0.01-0.144-0.014-0.202C150.897,90.632,150.887,90.731,150.939,90.71z"/>
				<path fill="#191919" d="M151.146,72.131c-0.023,0.06-0.045,0.116-0.068,0.178c0.021,0.014,0.041,0.023,0.062,0.041
					L151.146,72.131z"/>
				<path fill="#191919" d="M150.765,87.039c-0.075,0.906-0.006,1.447,0.082,1.962c-0.02-0.677-0.029-1.395-0.02-2.165
					C150.783,86.761,150.753,86.747,150.765,87.039z"/>
				<path fill="#191919" d="M151.38,79.534c-0.079,0.472-0.147,1.007-0.212,1.569C151.281,80.642,151.466,79.701,151.38,79.534z"/>
				<path fill="#191919" d="M151.017,90.202c0.004,0.046,0.007,0.087,0.011,0.136C151.1,90.041,151.066,90.078,151.017,90.202z"/>
				<path fill="#191919" d="M151.017,90.202c-0.036-0.466-0.106-0.833-0.17-1.201c0.017,0.552,0.041,1.063,0.079,1.507
					C150.949,90.396,150.984,90.283,151.017,90.202z"/>
				<path fill="#191919" d="M148.831,68.776c0.345,0.16,0.648,2.542,0.291,4.598c0.248,2.023,1.316,0.701,1.955-1.065
					c-0.145-0.063-0.276-0.063-0.454-2.145c-0.194,0.729-0.464,4.62-0.751,2.863c-0.158-2.758,0.129-2.26,0.317-3.601
					c-0.425,1.14-0.602-3.509-1.24-2.908l0.223,2.418C149.075,68.982,148.919,68.105,148.831,68.776z"/>
				<path fill="#191919" d="M150.99,76.275l0.028,0.856c0.07-0.977,0.209-1.676,0.486-2.963c-0.137-1.425-0.257-1.721-0.366-1.819
					l-0.104,4.219L150.99,76.275z"/>
				<path fill="#191919" d="M150.965,80.979c-0.328-0.669-0.456-2.726-0.84-1.466c0.005,2.514,0.27,1.762,0.398,3.264
					c-0.034-4.057,0.171,1.166,0.401-1.766c0.047,0.798,0.053,1.515,0.056,2.191c0.052-0.73,0.114-1.435,0.188-2.098
					c-0.009,0.037-0.015,0.062-0.022,0.093l0.001,0.02l-0.005-0.004c-0.046,0.175-0.072,0.232-0.044,0.036
					c-0.005-0.014-0.005-0.063-0.006-0.085c-0.047-0.027-0.087-0.103-0.125-0.183c0.087-1.175,0.091-0.185,0.125,0.183
					c0.017,0.014,0.032,0.045,0.05,0.049l0.004-0.015l-0.127-4.064C150.958,77.992,150.953,79.069,150.965,80.979z"/>
				<path fill="#191919" d="M149.241,101.373c0.024-0.126,0.044-0.12,0.064-0.13C149.272,100.98,149.249,100.881,149.241,101.373z"
					/>
				<path fill="#191919" d="M149.413,99.701c0.039,0.296,0.149,0.542,0.116,1.502c-0.087,0.833-0.133-0.004-0.224,0.04
					c0.073,0.578,0.188,2.025,0.331,0.211l-0.036-0.287c0.101-1.637,0.479-3.739,0.518-3.453
					C149.854,98.191,149.666,98.612,149.413,99.701z"/>
				<path fill="#191919" d="M150.052,90.223l-0.129-3.384l-0.287,1.724l0.165-0.088C149.726,90.399,149.929,89.983,150.052,90.223z"
					/>
				<polygon fill="#191919" points="151.331,71.744 151.707,72.192 151.194,70.237 				"/>
				<polygon fill="#191919" points="151.348,67.346 151.688,67.508 151.498,66.347 				"/>
				<path fill="#191919" d="M7.565,58.081l0.032,0.995C7.582,58.606,7.572,58.305,7.565,58.081z"/>
				<path fill="#191919" d="M7.606,50.881l-0.062-0.176C7.577,51.039,7.602,51.176,7.606,50.881z"/>
				<path fill="#191919" d="M98.703,7.26c-1.449-0.364-3.067-0.922-2.892-0.478l0.444,0.431C97.268,7.128,98.044,7.171,98.703,7.26z
					"/>
				<path fill="#191919" d="M24.729,9.846c0.138,0.03,0.282,0.061,0.424,0.091c0.351-0.104,0.681-0.2,0.978-0.288
					C25.709,9.709,25.231,9.776,24.729,9.846z"/>
				<path fill="#191919" d="M23.708,11.065l-1.91-0.214C22.227,10.921,22.841,10.992,23.708,11.065z"/>
				<path fill="#191919" d="M7.978,97.401l0.203,1.159C8.14,96.746,8.068,97.545,7.978,97.401z"/>
				<path fill="#191919" d="M151.632,22.302c0.186-1.25,0.265-2.245,0.292-3.119C151.653,20.689,151.258,21.904,151.632,22.302z"/>
				<path fill="#191919" d="M6.148,55.248c0.026,0.609,0.055,0.869,0.084,0.851C6.208,55.472,6.181,55.118,6.148,55.248z"/>
				<path fill="#191919" d="M151.941,15.573c-0.048,0.22-0.071,0.437-0.111,0.661c0.072,0.914,0.13,1.833,0.094,2.95
					C152.126,18.071,152.254,16.798,151.941,15.573z"/>
				<path fill="#191919" d="M95.524,149.634c0.104,0.014,0.227,0.029,0.323,0.041C95.879,149.636,95.735,149.631,95.524,149.634z"/>
				<path fill="#191919" d="M137.068,151.85c-0.409,0.012-1.076,0.032-1.706,0.051C135.669,151.902,136.184,151.888,137.068,151.85z
					"/>
				<path fill="#191919" d="M151.745,49.65C151.762,50.583,151.789,49.798,151.745,49.65L151.745,49.65z"/>
				<path fill="#191919" d="M150.089,54.186c-0.044-0.198-0.102-0.349-0.195-0.372C149.991,53.891,150.053,54.021,150.089,54.186z"
					/>
				<path fill="#191919" d="M145.644,9.847c-0.027,0-0.049-0.001-0.079-0.001C145.824,9.936,145.778,9.919,145.644,9.847z"/>
				<path fill="#191919" d="M151.543,51.054c0.054-0.351,0.101-0.754,0.135-1.193C151.644,50.054,151.6,50.416,151.543,51.054z"/>
				<path fill="#191919" d="M151.739,50.865c-0.02,0.322-0.035,0.575-0.05,0.815C151.756,51.798,151.801,51.694,151.739,50.865z"/>
				<path fill="#191919" d="M151.737,48.351c0.001,0.533-0.024,1.031-0.06,1.51c0.03-0.184,0.055-0.26,0.067-0.211
					C151.744,49.376,151.741,48.991,151.737,48.351z"/>
				<path fill="#191919" d="M19.118,150.154c0.062,0.011,0.132,0.023,0.2,0.035C20.259,150.026,19.846,150.053,19.118,150.154z"/>
				<path fill="#191919" d="M74.426,11.66c0.043-0.007,0.067-0.012,0.107-0.019c-0.044-0.005-0.099-0.011-0.138-0.015L74.426,11.66z
					"/>
				<path fill="#191919" d="M71.076,11.938c1.427-0.489,2.238-0.425,3.319-0.311l-1.108-1.171L71.076,11.938z"/>
				<path fill="#191919" d="M7.61,75.32l0.11-2.353c0.204,2.84,0.162,4.895,0.312,2.686c-0.429-0.333-0.083-9.145-0.483-9.472
					l0.087-1.551c0.007,0.444,0.008,0.516,0.015,0.955c0.199-3.016-0.295-2.241-0.229-6.127c0.033-1.354,0.099-2.299,0.144-1.376
					l-0.093-3.018c0.011-0.878,0.084-0.664,0.073,0.21l-0.013-4.603l0.012,0.034c-0.064-0.657-0.163-2.145-0.206-2.871
					c0.069-1.17,0.044,0.587,0.101,0.287l-0.095-2.548c0.125-1.039,0.224,1.074,0.196,2.834c0.465-2.38-0.104-2.115,0.212-7.251
					l0.034,2.406c0.283-1.551,0.208-3.429,0.429-6.15c-0.114,0.646-0.507,5.447-0.596,2.681c0.042-0.78,0.074-1.807-0.012-3.3
					c0.178-0.014,0.153-1.47,0.165-3.294l0.246,0.125c-0.041-1.971-0.171-1.815-0.271-2.975c0.052-2.197,0.268-2.652,0.454-3.169
					c0.107-3.519-0.376,2.429-0.361-1.735c0.15-2.926,0.08-4.98-0.061-8.481c0.139-2.048,0.188,0.358,0.289-0.376l-0.225-1.815
					c0.013-0.445,0.091-0.301,0.129-0.229c-0.077-1.529-0.322-0.126-0.386-2.531c-0.046-0.079-0.071-0.223-0.081-0.4
					c-0.009-0.125-0.003-0.285,0.014-0.462c0.017-0.177,0.044-0.37,0.078-0.562c0.018-0.092,0.036-0.188,0.054-0.288
					c0.118,0.007,0.253,0.033,0.377,0.049c0.547,0.074,0.79,0.145,1.788,0.182c0.831,0.034,1.657,0.023,2.401-0.085
					c0.733,0.118-0.354,0.227-0.13,0.375c4.083-0.247,3.501-0.165,6.854-0.576l2.856,0.305c-2.099-0.34,0.583-0.681,2.931-1.005
					c-0.744-0.16-1.38-0.295-1.807-0.359l3.748-0.253c0.453,0.071,0.075,0.229-0.539,0.416c0.255-0.041,0.497-0.079,0.687-0.109
					c1.341,0.163,0.646,0.43-0.314,0.675c-0.455-0.094-0.908-0.188-1.35-0.279c-0.926,0.268-1.792,0.551-1.599,0.806
					c0.244-0.047,0.713-0.086,1.229-0.105c-0.242,0.07-0.397,0.133-0.285,0.178c0.127,0.047,0.519-0.044,1.131-0.152l0.852,0.507
					l0.207-0.196l4.904,0.388c3.509-0.472,6.561-1.275,12.129-1.517c-1.382,0.422-0.297,0.691-0.372,1.195
					c-1.52-0.539-4.313,0.187-7.2,0.043c1.506,0.069,1.175,0.296,0.792,0.37l5.147-0.412c-0.116,0.406,1.093,0.318,2.438,0.504
					c-1.017-0.827,3.837-0.513,5.931-0.76c0.13,0.287-0.372,0.574-2.927,0.482c2.819,0.665,3.643-0.966,6.41-0.409
					c-0.624,0.003-0.96-0.042-1.207,0.103c1.457-0.249,5.021-0.027,4.182,0.227l-0.623,0.002c4.142,0.133,12.609,0.082,13.228-0.702
					c0.041,0.102-0.543,0.94-0.793,1.095c0,0,1.848-0.652,3.695-1.305c1.848-0.669,3.695-1.338,3.695-1.338
					c-0.651,0.682,1.848,2.332-1.586,2.699c0.986,0.103,2.206,0.227,4.286-0.003c-0.673-0.104-1.677-1.007-0.758-1.067
					c2.524,0.781,1.752,0.417,4.863,1.098c-1.008-0.156,0.112-1.25,1.706-1.213c-0.249,0.165,0.133,1.094-0.45,1.206l3.967-1.075
					c-0.99,0.195-0.175,0.93,0.713,1.248c-0.412-0.219,3.43,0.042,4.487-0.061l-1.681-0.269c4.479,0.198,4.424-1.56,8.867-1.5
					c-0.538,0.237-1.329,1.446,0.931,1.602c1.036-0.576,4.585-2.823,8.517-3.306l0.754,0.34l3.016-0.401
					c-1.878,0.923-7.148,2.818-10.026,3.521c1.676,0.277,0.466,0.401,2.977,0.386c0.887,0.325-1.368,0.474-2.106,0.486l5.844,0.249
					c-0.26-0.702,4.469-0.677,4.246-1.27l-6.348,0.697c-0.257-0.693,3.67-1.969,7.812-1.845c1.053,0.284-0.788,1.26-0.702,1.496
					c0.537-0.241,3.93-0.453,4.311-0.278l-1.757,0.375c2.305,0.28,3.762-0.935,6.532-0.245c0.956,0.048,2.854,0.935,3.021,0.508
					c-1.56-0.826-1.865-3.363-0.825-3.981c0.335,0.054,5.021,0.782,6.112,1.19c1.574,0.648-2.364,1.54-1.023,2.096
					c0.058-0.197,0.928-0.44,1.29-0.518c1.004,0.169-0.416,0.612,1.766,0.523c0.364-0.733,4.438,0.062,1.031-0.62
					c2.135-0.21,2.269,0.151,4.774,0.118c-0.798-0.474,2.25-1.613,4.389-1.82c-0.131,0.186,0.371,0.428,0.578,0.538
					c1.073,0.016,2.005,0.049,2.834,0.088l0.308,0.015l0.15,0.008c0.067-0.015,0.014,0.09,0.026,0.129
					c-0.011,0.216-0.022,0.429-0.033,0.64c-0.023,0.412-0.047,0.814-0.069,1.214c-0.041,0.774-0.082,1.54-0.125,2.352
					c-0.032,0.862-0.053,1.773-0.054,2.793c-0.175,0.376-0.382,2.345-0.692,1.506c0.129,0.587,0.373,1.126,0.392,2.385
					c-0.612,2.435-0.103-2.806-0.842-0.95c0.417,0.159,0.583,3.254,0.844,5.046c0.635-0.551,0.117-4.141-0.147-5.936
					c0.89-0.008,1.82,3.116,2.207,7.38c0.204,3.388-0.566,1.469-0.444,2.057c-0.162,6.365,1.476,5.422,0.831,10.708
					c-0.545,2.097-1.062,0.095-1.45,0.56c-0.202-2.76,0.346-4.238,0.329-6.109l-0.26,2.303c-0.179-0.878-0.317-2.721-0.158-3.725
					c-0.488,1.758-0.099,10.753-0.525,15.664c0.175,0.873,0.353,2.379,0.559,1.666l-0.07-1.554c0.42-1.428,0.567,2.925,0.766,0.958
					c0.287,2.085,0.717,4.421,0.468,7.355l-0.568,0.551c0.165-0.063,0.348-1.918,0.178-2.743c0.24,1.223-0.779,4.499-0.053,5.84
					l0.398-2.058c0.271,2.093,0.826,4.68,0.621,7.28c0.549-1.183-0.056-0.599,0.598-2.447c-0.808,1.602,0.119-6.652-0.753-4.079
					c0.773-1.896,0.35-3.282,1.037-5.761c-0.191,0.077-0.374,0.878-0.254-1.305c-0.055-0.099-0.123-0.331-0.163-0.479
					c0.008-0.067,0.01-0.09,0.017-0.147c-0.009,0.043-0.016,0.077-0.024,0.12c-0.027-0.094-0.033-0.103-0.008,0.045
					c-0.09,0.52-0.195,0.941-0.303,1.112c-0.426-1.083-0.39-4.555-0.613-5.729c0.102-1.296,0.22,0.542,0.434-0.166l-0.336-1.753
					c0.437-0.174,0.758-3.442,0.987-0.39l0.046-2.747c0.264-1.617,0.392-3.841,0.213-5.213c0.111-1.295-0.474-3.272-0.128-2.144
					l-0.248-4.308l0.115-0.04c0.093-4.25-0.723-8.75,0.152-13.608c-0.057-0.715-0.12-1.442-0.152-2.291
					c-0.005-0.325-0.011-0.662-0.017-1.013c0-0.373-0.001-0.76-0.001-1.165c0.006-0.812,0.024-1.699,0.061-2.706l0.418-1.116
					c-0.006-0.195-0.012-0.402-0.018-0.619c-0.001-0.11-0.002-0.223-0.003-0.338l-0.001-0.175c0.022-0.082-0.097-0.022-0.139-0.041
					c-0.479-0.004-0.99-0.01-1.521-0.015c-1.063-0.028-2.2-0.059-3.279-0.088c-0.552-0.012-1.089-0.023-1.595-0.034
					c-0.358-0.002-0.693-0.005-0.996-0.007c-0.485,0.009-0.863,0.055-1.061,0.163c-1.981-1.129-8.916-0.254-12.147-0.445
					l-0.121,0.545c-2.225-0.026-4.357,0.13-7.117,0.358l0.169,0.478c-2.38,0.396-6.118-0.323-9.883-0.256
					c0.256-0.181,1.21-0.138,1.886-0.032c-4.497-1.038-9.489,0.813-13.568,0.071c-1.016,0.173-1.752,0.12-2.465,0.01
					c0.094-0.001,0.179-0.011,0.252-0.025c-0.104,0-0.259-0.001-0.417-0.002c-0.449-0.076-0.911-0.163-1.412-0.232
					c0.425,0.107,0.833,0.195,1.188,0.235c-0.784,0.015-1.973,0.079-3.138,0.199l-0.497-0.48c-0.095,0.006-0.171,0.01-0.27,0.016
					c-1.144-0.169-0.919,0.234-0.309,0.594c-0.587,0.083-1.125,0.181-1.542,0.298c-0.929-0.767-3.058,0.275-4.326-0.535
					c-0.785,0.403-5.859,0.337-6.48,1.158c-0.04-0.106-0.383-0.156,0.247-0.165c-1.3-0.089-2.598-0.174-3.763,0.059l-0.551-0.58
					L76.425,8.85c-1.724-0.346-2.438-0.541-0.726-0.994c-4.133,0.701-3.353,0.277-6.867,0.953l0.171-0.364
					c-1.256,0.021-3.264,0.51-4.021,0.216c-2.81-0.661-13.904-0.04-21.117-0.543c1.399,0.93-3.353-0.383-3.639,0.345
					c-0.42-0.215-1.425-0.322-0.257-0.528c-3.681,0.258-5.53-0.245-8.072,0.363c-0.421-0.198,0.788-0.312,0.413-0.427
					c-0.295,0.05-1.17,0.197-1.553,0.083c-0.375-0.113,0.539-0.179,1.122-0.28c-3.76,0.115-4.141,0.721-4.414,1.287
					c-1.906-0.251-2.856-0.192-4.232,0.17c-0.664-0.172-1.77-0.339,0.566-0.431c-1.315-0.017-8.03-0.137-8.164,0.258
					c-0.412-0.095-1.837-0.008-2.183,0.039c-1.475,0-2.277,0-3.073,0C9.439,9.013,8.509,9.026,6.8,9.05l1.095,0.046
					C7.56,9.207,7.237,9.269,6.875,9.301L6.595,9.32c-0.077,0.023-0.25-0.047-0.202,0.104C6.392,9.629,6.39,9.843,6.389,10.069
					c-0.015,0.453-0.03,0.952-0.048,1.512c-0.004,0.253-0.009,0.52-0.014,0.803c0.003,0.26,0.006,0.535,0.01,0.827l-0.042-0.067
					c-0.232,5.354,0.145,2.312-0.114,7.593l0.222-0.287c0.475,0.492-0.247,4.68-0.042,7.745l0.108-1.107
					c0.147,1.674-0.544,4.68-0.562,6.361c-0.03,0.366-0.062-0.579-0.097-1.09c-0.174,4.402,0.253,0.57,0.341,3.851
					c-0.12,0.604-0.332-0.78-0.327,1.428c-0.073,1.1,0.454,6.403,0.25,9.416c0.081-0.664,0.166-1.323,0.238,0.201
					c0.037,2.335-0.282,6.313-0.019,8.422c-0.021,0.297-0.042,0.409-0.062,0.421c0.072,1.785,0.121,5.802,0.255,6.877
					c-0.494,1.649,0.241,11.098-0.227,11.058l0.003,5.491l-0.049-0.144c-0.053,3.51,0.055,4.75,0.174,5.984
					c-0.04,0.812-0.085,0.219-0.111,0.152c-0.141,5.129-0.145,5.639,0.117,9.938l-0.197,0.447c0.12,1.165-0.419,7.414-0.245,12.443
					c-0.026-0.049-0.071-0.152-0.098-0.552c0.096,2.829-0.128,6.216-0.298,9.155c-0.167,2.938-0.262,5.43,0.28,6.466l0.234,3.734
					c0.133-4.831,0.498,0.72,0.705-1.268c0.074,1.9-0.374,4.912-0.424,2.577l0.062-0.365c-0.613-0.857-0.274,6.004-0.724,5.874
					c-0.048,4.754-0.193,9.447-0.352,14.065c-0.022,0.842-0.043,1.684-0.065,2.522l-0.033,1.307l-0.017,0.656l-0.008,0.328
					c0.003,0.024-0.01,0.063,0.007,0.074l0.08,0.002l0.16,0.004c1.662,0.039,3.316,0.078,4.964,0.116
					c2.27,0.069,4.518,0.122,6.745,0.146l-1.026-0.646l3.106,0.051c0.815,0.153,1.094,0.514-1.122,0.472
					c1.166,0.377,3.717-0.288,3.779-0.432c4.339,0.282-1.695,0.754-0.364,0.774l1.807-0.039l-0.408-0.079
					c1.465-0.261,1.595-0.545,4.258-0.508c1.686,0.135,0.865,0.408,1.528,0.435c-0.004,0.046,0.22,0.069,1.018,0.02l3.914,0.057
					l-1.565-0.521c1.735-0.257,3.68,0.024,1.874-0.563c2.651,0.909,14.599,0.301,16.227,0.57c2.43-0.379,4.828-0.376,7.799-0.345
					c-0.739-0.1-1.181-0.658,1.381-0.595c-0.937,1.147,4.692,0.483,6.763,1.271c-1.851-0.518,7.284-0.184,4.38-0.904
					c2.138,0.077,0.13,0.407,1.752,0.651c5.089-0.448,11.214,0.166,17.504-0.057c0.098-0.126-0.955-0.311,0.394-0.51l3.321,0.58
					c1.242-0.08,1.144-0.709,3.413-0.323c-0.32-0.094-0.799-0.24,0.034-0.286c6.161,0.221,12.456,0.002,18.774-0.126
					c6.319-0.15,12.662-0.178,18.919-0.099c-1.695-0.06-0.565-0.104,0.729-0.139c-0.841-0.005,0.02-0.133-0.146-0.2
					c0,0,1.31,0.023,2.619,0.047c1.31,0.01,2.62,0.021,2.62,0.021c0.954-0.167,5.616-0.161,6.163-0.273l-1.659,0.052
					c2.207-0.137-3.087-0.259-2.765-0.493c-1.235,0.069-2.863-0.013-4.689-0.125c-1.827-0.102-3.851-0.24-5.878-0.063
					c-0.895-0.084,0.764-0.094,0.285-0.179c-1.027,0.118-2.269,0.139-4.567,0.027l0.26-0.036c-6.46-0.069-9.229-0.29-16.486-0.586
					l0.537,0.272c-1.56-0.058-1.888-0.148-2.618-0.229c-1.789,0.387,4.38,0.093,2.75,0.51c-2.068-0.579-10.997-0.125-12.395-0.846
					c-2.399-0.041,0.703,0.368-1.695,0.333l-0.636-0.206l-0.606,0.248c-1.573-0.061-2.367-0.326-2.425-0.5
					c0.381,0.025,1.084-0.031,1.494-0.039c-2.04-0.276-5.751-0.011-6.451-0.098l2.305,0.164c-6.547,0.113-14.541-0.282-20.866,0.153
					l0.48,0.185c-4.83,0.311-3.869-0.226-9.172-0.1l0.193-0.044c-1.062,0.183-2.479,0.273-3.93,0.246
					c1.339-0.217-2.52-0.45-0.763-0.689c-5.238,0.354-2.591,0.285-6.05,0.999l-0.798-0.327c-1.179,0.291-1.277,0.446-3.926,0.527
					c2.172-0.277-1.691-0.504,0.743-0.869c-5.558-0.743-8.252,0.711-10.802-0.357c-2.553,0.918,4.81,0.521,3.38,0.715
					c1.197,0.301-2.106,0.685-3.851,0.592c-1.776-0.021-3.019-1.188-7.485-1.166c0.444,0.004,0.475-0.066,0.918-0.062
					c-1.672-0.233-3.275,0.322-5.326-0.053c-1.149,0.559-2.662-0.02-2.993,0.686l4.097-0.175c-2.323,0.193-4.5,1.019-8.327,0.63
					c0.298-0.141,1.437-0.329,2.219-0.436c-1.119-0.201-2.154,0.145-3.314-0.061c0.331-0.696,4.979-0.176,7.468-0.723
					c-1.201-0.291-4.707,0.532-3.457-0.235c-1.797,0.973-4.4-0.087-7.425,0.662l0.2-0.41c-0.479,0.068-1.471,0.271-2.352,0.269
					l1.595-0.543c-0.611,0.12-1.215,0.158-1.806,0.153c-0.224,0.003-0.43-0.037-0.591-0.082l-0.219-0.065
					c-0.066-0.021-0.148-0.012-0.099-0.149c0.03-0.198,0.03-0.344-0.035-0.492c0.008,0.177,0.007,0.318-0.002,0.438
					c-0.001,0.111-0.053,0.248,0.014,0.23c0.069,0.037,0.038,0.104-0.042,0.183c-0.136,0.157-0.562,0.356-0.124,0.479
					c-0.222,0.039-0.431,0.07-0.623,0.094c-0.092-0.081-0.052-0.288-0.074-0.415c-0.012-0.288,0.002-0.539,0.034-0.746
					c0.031-0.208,0.081-0.374,0.14-0.509c0.03-0.038,0.061-0.2,0.094-0.314l0.102-0.361c0.281-0.962,0.59-2.016,0.431-5.411
					c0.075,0.92-0.159,3.451-0.357,2.014c0.058-1.293,0.166-3,0.338-3.793c-0.169-4.499-0.354,0.69-0.612-1.225
					c0.404-1.532-0.215-2.209-0.372-4.182l0.346-0.014c0.121-5.127-0.725-1.359-0.53-5.976l0.482,1.951l-0.161-2.406l0.375,0.496
					c-0.328-2.618-0.266-3.433-0.229-5.998c-0.197,0.597-0.544-0.335-0.581-2.605c0.145-1.549,0.284,0.867,0.188-2.352
					c0.182,0.727,0.425,1.522,0.191,2.923c0.096,0.144,0.195,0.717,0.292,0.864c0.156-1.667-0.06-4.19-0.087-5.356
					c0,0.449-0.001,0.985-0.034,1.26L7.83,113.08c0.082-0.734,0.167-0.151,0.254,0.426c-0.048-0.945-0.175-1.6-0.22-2.989
					c0.204,0.36,0.403,0.273,0.551,2.241l-0.325-4.446c0.077-0.297,0.17-2.281,0.251-1.704c0.032-2.465-0.477-6.047-0.4-9.314
					c-0.034-0.17-0.069-0.511-0.102-1.205c-0.009-3.071,0.115-5.792-0.117-9.432l0.215-2.065c-0.084-2.851-0.271,2.796-0.402-1.951
					c-0.094-3.361,0.186-1.254,0.239-2.434c-0.131-1.672-0.367-4.577-0.2-7.665C7.62,73.563,7.589,74.365,7.61,75.32z M7.617,40.16
					c0.031,0.681,0.125,2.04,0.022,2.538C7.455,41.921,7.549,41.321,7.617,40.16z M29.905,10.522
					c-0.506,0.112-1.29,0.047-2.173-0.088C28.374,10.41,29.1,10.426,29.905,10.522z M151.465,39.426
					c-0.009-0.028-0.015-0.049-0.022-0.073C151.644,37.834,151.564,38.373,151.465,39.426z M151.232,42.582
					c0.063,0.317,0.129,0.295,0.196,0.161c-0.118-0.22-0.12-0.929-0.08-1.736C151.222,41.232,151.133,41.64,151.232,42.582z
					 M29.081,153.058l-0.614-0.114C29.854,152.82,29.465,152.933,29.081,153.058z"/>
				<path fill="#191919" d="M23.846,10.925c-0.193-0.058-0.247-0.12-0.292-0.182C23.286,10.796,23.281,10.858,23.846,10.925z"/>
				<path fill="#191919" d="M7.941,97.187v0.106c0.012,0.059,0.025,0.09,0.037,0.108L7.941,97.187z"/>
				<path fill="#191919" d="M133.068,11.894c-0.649-0.075-1.013-0.171-1.253-0.269C131.78,11.751,132.075,11.859,133.068,11.894z"/>
				<path fill="#191919" d="M151.823,59.305l-0.086-2.021c0.009,0.978-0.094,1.327-0.17,1.821
					C151.671,59.059,151.825,58.673,151.823,59.305z"/>
				<path fill="#191919" d="M149.112,76.85c0.048,0.295,0.006,0.626,0.054,0.918l0.182-0.081
					C149.338,76.429,149.19,75.549,149.112,76.85z"/>
				<path fill="#191919" d="M150.353,61.176c-0.366,0.16-0.248,1.428-0.189,2.844l0.001-0.25
					C150.664,64.187,150.511,62.678,150.353,61.176z"/>
				<path fill="#191919" d="M150.173,64.349c0.015,0.436,0.021,0.882,0.001,1.309C150.372,65.823,150.22,65.127,150.173,64.349z"/>
				<path fill="#191919" d="M151.458,46.584c-0.107,0.672,0.496,0.421,0.333,0.802C152.283,48.136,151.234,42.909,151.458,46.584z"
					/>
				<polygon fill="#191919" points="149.149,62.323 149.599,61.815 149.237,61.021 				"/>
				<path fill="#191919" d="M149.498,51.143l-0.134,2.263c0.079-0.035,0.125,0.253,0.159,0.606
					C149.541,52.617,149.639,51.089,149.498,51.143z"/>
				<path fill="#191919" d="M149.523,54.011c-0.011,0.726-0.002,1.417,0.073,1.82C149.593,55.439,149.579,54.594,149.523,54.011z"/>
				<polygon fill="#191919" points="149.013,59.229 149.107,58.561 149.142,56.963 				"/>
				<path fill="#191919" d="M149.63,26.821l-0.146-2.469c-0.179-0.252-0.288,0.421-0.217,1.34
					C149.391,26.283,149.458,27.2,149.63,26.821z"/>
				<path fill="#191919" d="M148.231,34.288c0.104-0.667,0.217-0.713,0.384-1.089l-0.631-0.075L148.231,34.288z"/>
				<path fill="#191919" d="M148.062,27.087c-0.178-0.246-0.525-3.584-0.473-0.454C147.769,26.883,147.923,29.357,148.062,27.087z"
					/>
				<polygon fill="#191919" points="129.25,10.062 129.878,10.054 129.788,8.96 				"/>
				<path fill="#191919" d="M96.457,12.49c2.926,0.27,0.695-0.628,3.339-0.301c0.687-0.24-2.161-0.266-1.457-0.472
					C96.573,11.963,95.646,11.812,96.457,12.49z"/>
				<path fill="#191919" d="M98.339,11.717c0.283-0.039,0.583-0.086,0.901-0.151C98.729,11.627,98.488,11.675,98.339,11.717z"/>
				<polygon fill="#191919" points="143.962,151.766 145.844,151.729 144.629,151.719 				"/>
				<path fill="#191919" d="M147.574,151.531l0.443,0.065l1.13-0.104C148.722,151.508,147.897,151.541,147.574,151.531z"/>
				<path fill="#191919" d="M8.167,34.933L8.11,34.789c-0.069,0.292-0.082,0.732-0.105,1.614L8.167,34.933z"/>
				<polygon fill="#191919" points="7.752,60.452 7.757,60.013 7.577,60.833 				"/>
				<path fill="#191919" d="M8.062,81.87c-0.018-0.875-0.039-1.902-0.057-2.78C8.061,80.995,7.826,82.106,8.062,81.87z"/>
			</g>
		</g>
	</g>
</g>
<g>
	<g>
		<g>
			<path fill="#191919" d="M78.169,18.461c0,0-0.756,20.055-14.197,35.312c0,0,18.531-12.839,12.518,3.364
				c0,0-6.594,12.596-2.811,34.29c0,0,3.775,28.056-2.393,33.28c0,0,16.35-3.573,13.287,17.6c0,0,8.403-5.644,2.428-33.628
				c0,0-12.467-35.176-1.494-53.93c0,0,2.662-7.792,10.521,4.524C96.028,59.274,89.983,31.987,78.169,18.461z"/>
		</g>
	</g>
</g>
</svg>
